Amaranth-Regular.ufo
<glyph name="exclam" format="1">
  <advance width="319"/>
  <unicode hex="0021"/>
  <outline>
    <contour>
      <point x="176" y="140" type="curve" smooth="yes"/>
      <point x="127" y="140"/>
      <point x="101" y="106"/>
      <point x="101" y="63" type="curve" smooth="yes"/>
      <point x="101" y="23"/>
      <point x="127" y="-11"/>
      <point x="173" y="-11" type="curve" smooth="yes"/>
      <point x="223" y="-11"/>
      <point x="249" y="23"/>
      <point x="249" y="65" type="curve" smooth="yes"/>
      <point x="249" y="109"/>
      <point x="223" y="140"/>
    </contour>
    <contour>
      <point x="127" y="220" type="line"/>
      <point x="225" y="220" type="line"/>
      <point x="254" y="677" type="line"/>
      <point x="127" y="677" type="line"/>
    </contour>
  </outline>
</glyph>
<glyph name="quotedbl" format="1">
  <advance width="366"/>
  <unicode hex="0022"/>
  <outline>
    <contour>
      <point x="50" y="677" type="line"/>
      <point x="58" y="434" type="line"/>
      <point x="138" y="434" type="line"/>
      <point x="146" y="677" type="line"/>
    </contour>
    <contour>
      <point x="219" y="677" type="line"/>
      <point x="227" y="434" type="line"/>
      <point x="307" y="434" type="line"/>
      <point x="315" y="677" type="line"/>
    </contour>
  </outline>
</glyph>
<glyph name="percent" format="1">
  <advance width="840"/>
  <unicode hex="0025"/>
  <outline>
    <contour>
      <point x="193" y="591" type="curve" smooth="yes"/>
      <point x="90" y="591"/>
      <point x="40" y="514"/>
      <point x="40" y="410" type="curve" smooth="yes"/>
      <point x="40" y="304"/>
      <point x="84" y="237"/>
      <point x="187" y="237" type="curve" smooth="yes"/>
      <point x="291" y="237"/>
      <point x="341" y="315"/>
      <point x="341" y="417" type="curve" smooth="yes"/>
      <point x="341" y="525"/>
      <point x="297" y="591"/>
    </contour>
    <contour>
      <point x="187" y="520" type="curve" smooth="yes"/>
      <point x="234" y="520"/>
      <point x="243" y="472"/>
      <point x="243" y="412" type="curve" smooth="yes"/>
      <point x="243" y="352"/>
      <point x="234" y="308"/>
      <point x="193" y="308" type="curve" smooth="yes"/>
      <point x="147" y="308"/>
      <point x="138" y="356"/>
      <point x="138" y="416" type="curve" smooth="yes"/>
      <point x="138" y="476"/>
      <point x="147" y="520"/>
    </contour>
    <contour>
      <point x="237" y="0" type="line"/>
      <point x="331" y="0" type="line"/>
      <point x="605" y="587" type="line"/>
      <point x="511" y="587" type="line"/>
    </contour>
    <contour>
      <point x="652" y="351" type="curve" smooth="yes"/>
      <point x="548" y="351"/>
      <point x="499" y="274"/>
      <point x="499" y="170" type="curve" smooth="yes"/>
      <point x="499" y="64"/>
      <point x="543" y="-3"/>
      <point x="646" y="-3" type="curve" smooth="yes"/>
      <point x="750" y="-3"/>
      <point x="799" y="75"/>
      <point x="799" y="177" type="curve" smooth="yes"/>
      <point x="799" y="285"/>
      <point x="756" y="351"/>
    </contour>
    <contour>
      <point x="646" y="280" type="curve" smooth="yes"/>
      <point x="693" y="280"/>
      <point x="702" y="232"/>
      <point x="702" y="172" type="curve" smooth="yes"/>
      <point x="702" y="112"/>
      <point x="693" y="68"/>
      <point x="652" y="68" type="curve" smooth="yes"/>
      <point x="606" y="68"/>
      <point x="597" y="116"/>
      <point x="597" y="176" type="curve" smooth="yes"/>
      <point x="597" y="236"/>
      <point x="606" y="280"/>
    </contour>
  </outline>
</glyph>
<glyph name="ampersand" format="1">
  <advance width="574"/>
  <unicode hex="0026"/>
  <outline>
    <contour>
      <point x="442" y="523" type="line"/>
      <point x="407" y="567"/>
      <point x="360" y="595"/>
      <point x="292" y="595" type="curve" smooth="yes"/>
      <point x="169" y="595"/>
      <point x="121" y="525"/>
      <point x="121" y="453" type="curve" smooth="yes"/>
      <point x="121" y="423"/>
      <point x="129" y="393"/>
      <point x="144" y="363" type="curve"/>
      <point x="98" y="331"/>
      <point x="35" y="267"/>
      <point x="35" y="169" type="curve" smooth="yes"/>
      <point x="35" y="58"/>
      <point x="126" y="-6"/>
      <point x="216" y="-6" type="curve" smooth="yes"/>
      <point x="303" y="-6"/>
      <point x="369" y="29"/>
      <point x="420" y="78" type="curve"/>
      <point x="522" y="-5" type="line"/>
      <point x="579" y="71" type="line"/>
      <point x="482" y="155" type="line"/>
      <point x="505" y="190"/>
      <point x="522" y="228"/>
      <point x="537" y="261" type="curve"/>
      <point x="453" y="295" type="line"/>
      <point x="442" y="269"/>
      <point x="429" y="242"/>
      <point x="413" y="216" type="curve"/>
      <point x="310" y="307"/>
      <point x="238" y="383"/>
      <point x="238" y="448" type="curve" smooth="yes"/>
      <point x="238" y="480"/>
      <point x="259" y="501"/>
      <point x="300" y="501" type="curve" smooth="yes"/>
      <point x="345" y="501"/>
      <point x="374" y="467"/>
      <point x="384" y="460" type="curve"/>
    </contour>
    <contour>
      <point x="349" y="138" type="curve"/>
      <point x="319" y="109"/>
      <point x="285" y="92"/>
      <point x="249" y="92" type="curve" smooth="yes"/>
      <point x="188" y="92"/>
      <point x="153" y="127"/>
      <point x="153" y="184" type="curve" smooth="yes"/>
      <point x="153" y="234"/>
      <point x="175" y="270"/>
      <point x="193" y="290" type="curve"/>
      <point x="233" y="239"/>
      <point x="289" y="189"/>
    </contour>
  </outline>
</glyph>
<glyph name="quotesingle" format="1">
  <advance width="196"/>
  <unicode hex="0027"/>
  <outline>
    <contour>
      <point x="50" y="677" type="line"/>
      <point x="58" y="434" type="line"/>
      <point x="138" y="434" type="line"/>
      <point x="146" y="677" type="line"/>
    </contour>
  </outline>
</glyph>
<glyph name="parenleft" format="1">
  <advance width="383"/>
  <unicode hex="0028"/>
  <outline>
    <contour>
      <point x="70" y="269" type="curve" smooth="yes"/>
      <point x="70" y="7"/>
      <point x="208" y="-140"/>
      <point x="281" y="-191" type="curve"/>
      <point x="343" y="-123" type="line"/>
      <point x="284" y="-74"/>
      <point x="183" y="50"/>
      <point x="183" y="268" type="curve" smooth="yes"/>
      <point x="183" y="484"/>
      <point x="285" y="609"/>
      <point x="343" y="658" type="curve"/>
      <point x="281" y="726" type="line"/>
      <point x="208" y="675"/>
      <point x="70" y="527"/>
    </contour>
  </outline>
</glyph>
<glyph name="parenright" format="1">
  <advance width="383"/>
  <unicode hex="0029"/>
  <outline>
    <contour>
      <point x="343" y="269" type="curve" smooth="yes"/>
      <point x="343" y="527"/>
      <point x="205" y="675"/>
      <point x="132" y="726" type="curve"/>
      <point x="71" y="658" type="line"/>
      <point x="129" y="609"/>
      <point x="231" y="484"/>
      <point x="231" y="268" type="curve" smooth="yes"/>
      <point x="231" y="50"/>
      <point x="130" y="-74"/>
      <point x="71" y="-123" type="curve"/>
      <point x="132" y="-191" type="line"/>
      <point x="205" y="-140"/>
      <point x="343" y="7"/>
    </contour>
  </outline>
</glyph>
<glyph name="asterisk" format="1">
  <advance width="450"/>
  <unicode hex="002A"/>
  <outline>
    <contour>
      <point x="174" y="677" type="line"/>
      <point x="183" y="566" type="line"/>
      <point x="80" y="609" type="line"/>
      <point x="50" y="518" type="line"/>
      <point x="161" y="492" type="line"/>
      <point x="84" y="403" type="line"/>
      <point x="162" y="346" type="line"/>
      <point x="224" y="446" type="line"/>
      <point x="285" y="347" type="line"/>
      <point x="363" y="404" type="line"/>
      <point x="287" y="491" type="line"/>
      <point x="400" y="518" type="line"/>
      <point x="370" y="609" type="line"/>
      <point x="260" y="563" type="line"/>
      <point x="270" y="677" type="line"/>
    </contour>
  </outline>
</glyph>
<glyph name="comma" format="1">
  <advance width="280"/>
  <unicode hex="002C"/>
  <outline>
    <contour>
      <point x="87" y="123" type="curve"/>
      <point x="88" y="98"/>
      <point x="106" y="64"/>
      <point x="106" y="25" type="curve" smooth="yes"/>
      <point x="106" y="-11"/>
      <point x="92" y="-51"/>
      <point x="40" y="-89" type="curve"/>
      <point x="83" y="-147" type="line"/>
      <point x="154" y="-111"/>
      <point x="220" y="-41"/>
      <point x="220" y="67" type="curve" smooth="yes"/>
      <point x="220" y="110"/>
      <point x="199" y="141"/>
      <point x="153" y="141" type="curve" smooth="yes"/>
      <point x="106" y="141"/>
      <point x="88" y="124"/>
    </contour>
  </outline>
</glyph>
<glyph name="hyphen" format="1">
  <advance width="383"/>
  <unicode hex="002D"/>
  <outline>
    <contour>
      <point x="50" y="278" type="line"/>
      <point x="333" y="278" type="line"/>
      <point x="333" y="361" type="line"/>
      <point x="50" y="361" type="line"/>
    </contour>
  </outline>
</glyph>
<glyph name="period" format="1">
  <advance width="269"/>
  <unicode hex="002E"/>
  <outline>
    <contour>
      <point x="136" y="140" type="curve" smooth="yes"/>
      <point x="86" y="140"/>
      <point x="60" y="106"/>
      <point x="60" y="63" type="curve" smooth="yes"/>
      <point x="60" y="23"/>
      <point x="86" y="-11"/>
      <point x="133" y="-11" type="curve" smooth="yes"/>
      <point x="182" y="-11"/>
      <point x="208" y="23"/>
      <point x="208" y="65" type="curve" smooth="yes"/>
      <point x="208" y="109"/>
      <point x="182" y="140"/>
    </contour>
  </outline>
</glyph>
<glyph name="slash" format="1">
  <advance width="417"/>
  <unicode hex="002F"/>
  <outline>
    <contour>
      <point x="-10" y="-126" type="line"/>
      <point x="109" y="-126" type="line"/>
      <point x="427" y="729" type="line"/>
      <point x="308" y="729" type="line"/>
    </contour>
  </outline>
</glyph>
<glyph name="zero" format="1">
  <advance width="563"/>
  <unicode hex="0030"/>
  <outline>
    <contour>
      <point x="288" y="642" type="curve" smooth="yes"/>
      <point x="115" y="642"/>
      <point x="45" y="511"/>
      <point x="45" y="311" type="curve" smooth="yes"/>
      <point x="45" y="108"/>
      <point x="110" y="-6"/>
      <point x="275" y="-6" type="curve" smooth="yes"/>
      <point x="448" y="-6"/>
      <point x="518" y="128"/>
      <point x="518" y="327" type="curve" smooth="yes"/>
      <point x="518" y="528"/>
      <point x="453" y="642"/>
    </contour>
    <contour>
      <point x="275" y="555" type="curve" smooth="yes"/>
      <point x="376" y="555"/>
      <point x="393" y="448"/>
      <point x="393" y="315" type="curve" smooth="yes"/>
      <point x="393" y="175"/>
      <point x="371" y="81"/>
      <point x="287" y="81" type="curve" smooth="yes"/>
      <point x="187" y="81"/>
      <point x="169" y="189"/>
      <point x="169" y="322" type="curve" smooth="yes"/>
      <point x="169" y="464"/>
      <point x="192" y="555"/>
    </contour>
  </outline>
</glyph>
<glyph name="three" format="1">
  <advance width="500"/>
  <unicode hex="0033"/>
  <outline>
    <contour>
      <point x="247" y="642" type="curve" smooth="yes"/>
      <point x="165" y="642"/>
      <point x="114" y="623"/>
      <point x="48" y="593" type="curve"/>
      <point x="87" y="516" type="line"/>
      <point x="149" y="540"/>
      <point x="180" y="555"/>
      <point x="231" y="555" type="curve" smooth="yes"/>
      <point x="278" y="555"/>
      <point x="306" y="533"/>
      <point x="306" y="492" type="curve" smooth="yes"/>
      <point x="306" y="419"/>
      <point x="216" y="398"/>
      <point x="120" y="365" type="curve"/>
      <point x="151" y="287" type="line"/>
      <point x="157" y="288"/>
      <point x="203" y="299"/>
      <point x="248" y="299" type="curve" smooth="yes"/>
      <point x="296" y="299"/>
      <point x="338" y="257"/>
      <point x="338" y="196" type="curve" smooth="yes"/>
      <point x="338" y="118"/>
      <point x="280" y="81"/>
      <point x="219" y="81" type="curve" smooth="yes"/>
      <point x="172" y="81"/>
      <point x="128" y="102"/>
      <point x="69" y="129" type="curve"/>
      <point x="35" y="46" type="line"/>
      <point x="96" y="18"/>
      <point x="162" y="-6"/>
      <point x="222" y="-6" type="curve" smooth="yes"/>
      <point x="397" y="-6"/>
      <point x="454" y="97"/>
      <point x="454" y="198" type="curve" smooth="yes"/>
      <point x="454" y="271"/>
      <point x="407" y="342"/>
      <point x="323" y="367" type="curve"/>
      <point x="364" y="386"/>
      <point x="425" y="425"/>
      <point x="425" y="503" type="curve" smooth="yes"/>
      <point x="425" y="585"/>
      <point x="364" y="642"/>
    </contour>
  </outline>
</glyph>
<glyph name="four" format="1">
  <advance width="525"/>
  <unicode hex="0034"/>
  <outline>
    <contour>
      <point x="300" y="0" type="line"/>
      <point x="413" y="0" type="line"/>
      <point x="413" y="176" type="line"/>
      <point x="494" y="176" type="line"/>
      <point x="510" y="262" type="line"/>
      <point x="413" y="262" type="line"/>
      <point x="413" y="486" type="line"/>
      <point x="300" y="466" type="line"/>
      <point x="300" y="262" type="line"/>
      <point x="144" y="262" type="line"/>
      <point x="319" y="637" type="line"/>
      <point x="202" y="637" type="line"/>
      <point x="20" y="240" type="line"/>
      <point x="20" y="176" type="line"/>
      <point x="300" y="176" type="line"/>
    </contour>
  </outline>
</glyph>
<glyph name="six" format="1">
  <advance width="524"/>
  <unicode hex="0036"/>
  <outline>
    <contour>
      <point x="443" y="613" type="line"/>
      <point x="408" y="628"/>
      <point x="365" y="640"/>
      <point x="316" y="640" type="curve" smooth="yes"/>
      <point x="122" y="640"/>
      <point x="45" y="489"/>
      <point x="45" y="318" type="curve" smooth="yes"/>
      <point x="45" y="129"/>
      <point x="101" y="-6"/>
      <point x="268" y="-6" type="curve" smooth="yes"/>
      <point x="411" y="-6"/>
      <point x="489" y="86"/>
      <point x="489" y="205" type="curve" smooth="yes"/>
      <point x="489" y="336"/>
      <point x="417" y="413"/>
      <point x="301" y="413" type="curve" smooth="yes"/>
      <point x="233" y="413"/>
      <point x="189" y="375"/>
      <point x="167" y="349" type="curve"/>
      <point x="170" y="460"/>
      <point x="196" y="552"/>
      <point x="312" y="552" type="curve" smooth="yes"/>
      <point x="346" y="552"/>
      <point x="383" y="544"/>
      <point x="412" y="534" type="curve"/>
    </contour>
    <contour>
      <point x="279" y="327" type="curve" smooth="yes"/>
      <point x="350" y="327"/>
      <point x="373" y="273"/>
      <point x="373" y="204" type="curve" smooth="yes"/>
      <point x="373" y="130"/>
      <point x="344" y="79"/>
      <point x="277" y="79" type="curve" smooth="yes"/>
      <point x="202" y="79"/>
      <point x="172" y="143"/>
      <point x="167" y="280" type="curve"/>
      <point x="175" y="288"/>
      <point x="225" y="327"/>
    </contour>
  </outline>
</glyph>
<glyph name="seven" format="1">
  <advance width="458"/>
  <unicode hex="0037"/>
  <outline>
    <contour>
      <point x="422" y="637" type="line"/>
      <point x="5" y="637" type="line"/>
      <point x="21" y="546" type="line"/>
      <point x="292" y="546" type="line"/>
      <point x="98" y="0" type="line"/>
      <point x="221" y="0" type="line"/>
      <point x="422" y="565" type="line"/>
    </contour>
  </outline>
</glyph>
<glyph name="nine" format="1">
  <advance width="523"/>
  <unicode hex="0039"/>
  <outline>
    <contour>
      <point x="81" y="21" type="line"/>
      <point x="116" y="6"/>
      <point x="160" y="-6"/>
      <point x="209" y="-6" type="curve" smooth="yes"/>
      <point x="403" y="-6"/>
      <point x="479" y="145"/>
      <point x="479" y="316" type="curve" smooth="yes"/>
      <point x="479" y="505"/>
      <point x="424" y="640"/>
      <point x="257" y="640" type="curve" smooth="yes"/>
      <point x="113" y="640"/>
      <point x="35" y="548"/>
      <point x="35" y="429" type="curve" smooth="yes"/>
      <point x="35" y="298"/>
      <point x="107" y="221"/>
      <point x="223" y="221" type="curve" smooth="yes"/>
      <point x="292" y="221"/>
      <point x="335" y="257"/>
      <point x="357" y="283" type="curve"/>
      <point x="354" y="174"/>
      <point x="328" y="82"/>
      <point x="213" y="82" type="curve" smooth="yes"/>
      <point x="179" y="82"/>
      <point x="142" y="90"/>
      <point x="112" y="100" type="curve"/>
    </contour>
    <contour>
      <point x="245" y="307" type="curve" smooth="yes"/>
      <point x="175" y="307"/>
      <point x="151" y="361"/>
      <point x="151" y="430" type="curve" smooth="yes"/>
      <point x="151" y="503"/>
      <point x="180" y="555"/>
      <point x="248" y="555" type="curve" smooth="yes"/>
      <point x="322" y="555"/>
      <point x="353" y="490"/>
      <point x="357" y="352" type="curve"/>
      <point x="348" y="346"/>
      <point x="299" y="307"/>
    </contour>
  </outline>
</glyph>
<glyph name="colon" format="1">
  <advance width="289"/>
  <unicode hex="003A"/>
  <outline>
    <contour>
      <point x="166" y="140" type="curve" smooth="yes"/>
      <point x="117" y="140"/>
      <point x="91" y="106"/>
      <point x="91" y="63" type="curve" smooth="yes"/>
      <point x="91" y="23"/>
      <point x="117" y="-11"/>
      <point x="163" y="-11" type="curve" smooth="yes"/>
      <point x="213" y="-11"/>
      <point x="239" y="23"/>
      <point x="239" y="65" type="curve" smooth="yes"/>
      <point x="239" y="109"/>
      <point x="213" y="140"/>
    </contour>
    <contour>
      <point x="166" y="510" type="curve" smooth="yes"/>
      <point x="117" y="510"/>
      <point x="91" y="476"/>
      <point x="91" y="432" type="curve" smooth="yes"/>
      <point x="91" y="393"/>
      <point x="117" y="359"/>
      <point x="163" y="359" type="curve" smooth="yes"/>
      <point x="213" y="359"/>
      <point x="239" y="393"/>
      <point x="239" y="435" type="curve" smooth="yes"/>
      <point x="239" y="479"/>
      <point x="213" y="510"/>
    </contour>
  </outline>
</glyph>
<glyph name="less" format="1">
  <advance width="455"/>
  <unicode hex="003C"/>
  <outline>
    <contour>
      <point x="415" y="183" type="line"/>
      <point x="216" y="274" type="line" smooth="yes"/>
      <point x="195" y="284"/>
      <point x="171" y="293"/>
      <point x="154" y="300" type="curve"/>
      <point x="171" y="307"/>
      <point x="195" y="316"/>
      <point x="215" y="326" type="curve"/>
      <point x="409" y="413" type="line"/>
      <point x="369" y="506" type="line"/>
      <point x="30" y="341" type="line"/>
      <point x="30" y="259" type="line"/>
      <point x="375" y="90" type="line"/>
    </contour>
  </outline>
</glyph>
<glyph name="equal" format="1">
  <advance width="503"/>
  <unicode hex="003D"/>
  <outline>
    <contour>
      <point x="70" y="348" type="line"/>
      <point x="433" y="348" type="line"/>
      <point x="433" y="436" type="line"/>
      <point x="70" y="436" type="line"/>
    </contour>
    <contour>
      <point x="70" y="173" type="line"/>
      <point x="433" y="173" type="line"/>
      <point x="433" y="261" type="line"/>
      <point x="70" y="261" type="line"/>
    </contour>
  </outline>
</glyph>
<glyph name="question" format="1">
  <advance width="433"/>
  <unicode hex="003F"/>
  <outline>
    <contour>
      <point x="219" y="687" type="curve" smooth="yes"/>
      <point x="151" y="687"/>
      <point x="94" y="662"/>
      <point x="40" y="637" type="curve"/>
      <point x="79" y="558" type="line"/>
      <point x="137" y="585"/>
      <point x="161" y="600"/>
      <point x="204" y="600" type="curve" smooth="yes"/>
      <point x="250" y="600"/>
      <point x="281" y="572"/>
      <point x="281" y="523" type="curve" smooth="yes"/>
      <point x="281" y="444"/>
      <point x="139" y="359"/>
      <point x="139" y="220" type="curve"/>
      <point x="223" y="197" type="line"/>
      <point x="237" y="246"/>
      <point x="270" y="291"/>
      <point x="307" y="337" type="curve" smooth="yes"/>
      <point x="356" y="397"/>
      <point x="409" y="460"/>
      <point x="409" y="537" type="curve" smooth="yes"/>
      <point x="409" y="643"/>
      <point x="336" y="687"/>
    </contour>
    <contour>
      <point x="187" y="140" type="curve" smooth="yes"/>
      <point x="138" y="140"/>
      <point x="112" y="106"/>
      <point x="112" y="63" type="curve" smooth="yes"/>
      <point x="112" y="23"/>
      <point x="138" y="-11"/>
      <point x="184" y="-11" type="curve" smooth="yes"/>
      <point x="234" y="-11"/>
      <point x="260" y="23"/>
      <point x="260" y="65" type="curve" smooth="yes"/>
      <point x="260" y="109"/>
      <point x="234" y="140"/>
    </contour>
  </outline>
</glyph>
<glyph name="at" format="1">
  <advance width="894"/>
  <unicode hex="0040"/>
  <outline>
    <contour>
      <point x="626" y="429" type="line"/>
      <point x="626" y="429"/>
      <point x="521" y="455"/>
      <point x="449" y="455" type="curve" smooth="yes"/>
      <point x="321" y="455"/>
      <point x="234" y="354"/>
      <point x="234" y="218" type="curve" smooth="yes"/>
      <point x="234" y="82"/>
      <point x="286" y="-6"/>
      <point x="399" y="-6" type="curve" smooth="yes"/>
      <point x="478" y="-6"/>
      <point x="523" y="33"/>
      <point x="541" y="109" type="curve"/>
      <point x="558" y="43"/>
      <point x="595" y="-6"/>
      <point x="669" y="-6" type="curve" smooth="yes"/>
      <point x="796" y="-6"/>
      <point x="844" y="186"/>
      <point x="844" y="277" type="curve" smooth="yes"/>
      <point x="844" y="507"/>
      <point x="675" y="615"/>
      <point x="491" y="615" type="curve" smooth="yes"/>
      <point x="277" y="615"/>
      <point x="55" y="470"/>
      <point x="55" y="199" type="curve" smooth="yes"/>
      <point x="55" y="-80"/>
      <point x="233" y="-162"/>
      <point x="411" y="-162" type="curve" smooth="yes"/>
      <point x="511" y="-162"/>
      <point x="606" y="-117"/>
      <point x="609" y="-115" type="curve"/>
      <point x="582" y="-46" type="line"/>
      <point x="578" y="-48"/>
      <point x="489" y="-84"/>
      <point x="410" y="-84" type="curve" smooth="yes"/>
      <point x="194" y="-84"/>
      <point x="140" y="59"/>
      <point x="140" y="203" type="curve" smooth="yes"/>
      <point x="140" y="422"/>
      <point x="313" y="538"/>
      <point x="480" y="538" type="curve" smooth="yes"/>
      <point x="629" y="538"/>
      <point x="760" y="453"/>
      <point x="760" y="269" type="curve" smooth="yes"/>
      <point x="760" y="223"/>
      <point x="741" y="73"/>
      <point x="677" y="73" type="curve" smooth="yes"/>
      <point x="631" y="73"/>
      <point x="626" y="141"/>
      <point x="626" y="217" type="curve" smooth="yes"/>
    </contour>
    <contour>
      <point x="416" y="69" type="curve" smooth="yes"/>
      <point x="357" y="69"/>
      <point x="346" y="143"/>
      <point x="346" y="227" type="curve" smooth="yes"/>
      <point x="346" y="317"/>
      <point x="381" y="381"/>
      <point x="460" y="381" type="curve" smooth="yes"/>
      <point x="479" y="381"/>
      <point x="509" y="374"/>
      <point x="520" y="371" type="curve"/>
      <point x="520" y="237" type="line" smooth="yes"/>
      <point x="520" y="150"/>
      <point x="473" y="69"/>
    </contour>
  </outline>
</glyph>
<glyph name="B" format="1">
  <advance width="565"/>
  <unicode hex="0042"/>
  <outline>
    <contour>
      <point x="70" y="0" type="line"/>
      <point x="93" y="0"/>
      <point x="195" y="-1"/>
      <point x="267" y="-1" type="curve" smooth="yes"/>
      <point x="443" y="-1"/>
      <point x="529" y="75"/>
      <point x="529" y="190" type="curve" smooth="yes"/>
      <point x="529" y="263"/>
      <point x="485" y="322"/>
      <point x="406" y="352" type="curve"/>
      <point x="469" y="384"/>
      <point x="508" y="438"/>
      <point x="508" y="503" type="curve" smooth="yes"/>
      <point x="508" y="614"/>
      <point x="425" y="679"/>
      <point x="271" y="679" type="curve" smooth="yes"/>
      <point x="218" y="679"/>
      <point x="90" y="677"/>
      <point x="70" y="677" type="curve"/>
    </contour>
    <contour>
      <point x="189" y="303" type="line"/>
      <point x="207" y="304"/>
      <point x="232" y="304"/>
      <point x="264" y="304" type="curve" smooth="yes"/>
      <point x="371" y="304"/>
      <point x="402" y="248"/>
      <point x="402" y="192" type="curve" smooth="yes"/>
      <point x="402" y="131"/>
      <point x="366" y="85"/>
      <point x="275" y="85" type="curve" smooth="yes"/>
      <point x="189" y="85" type="line"/>
    </contour>
    <contour>
      <point x="189" y="593" type="line"/>
      <point x="205" y="594"/>
      <point x="227" y="594"/>
      <point x="256" y="594" type="curve" smooth="yes"/>
      <point x="354" y="594"/>
      <point x="383" y="541"/>
      <point x="383" y="489" type="curve" smooth="yes"/>
      <point x="383" y="433"/>
      <point x="350" y="389"/>
      <point x="266" y="389" type="curve" smooth="yes"/>
      <point x="189" y="389" type="line"/>
    </contour>
  </outline>
</glyph>
<glyph name="E" format="1">
  <advance width="513"/>
  <unicode hex="0045"/>
  <outline>
    <contour>
      <point x="284" y="677" type="move" name="topUC"/>
    </contour>
    <contour>
      <point x="70" y="0" type="line"/>
      <point x="487" y="0" type="line"/>
      <point x="487" y="90" type="line"/>
      <point x="189" y="90" type="line"/>
      <point x="189" y="307" type="line"/>
      <point x="407" y="307" type="line"/>
      <point x="422" y="398" type="line"/>
      <point x="189" y="398" type="line"/>
      <point x="189" y="587" type="line"/>
      <point x="472" y="587" type="line"/>
      <point x="472" y="677" type="line"/>
      <point x="70" y="677" type="line"/>
    </contour>
  </outline>
</glyph>
<glyph name="G" format="1">
  <advance width="605"/>
  <unicode hex="0047"/>
  <outline>
    <contour>
      <point x="377" y="-223" type="line"/>
      <point x="459" y="-182"/>
      <point x="555" y="-135"/>
      <point x="555" y="27" type="curve" smooth="yes"/>
      <point x="555" y="328" type="line"/>
      <point x="438" y="328" type="line"/>
      <point x="438" y="237" type="line" smooth="yes"/>
      <point x="438" y="142"/>
      <point x="366" y="85"/>
      <point x="304" y="85" type="curve" smooth="yes"/>
      <point x="209" y="85"/>
      <point x="172" y="188"/>
      <point x="172" y="339" type="curve" smooth="yes"/>
      <point x="172" y="480"/>
      <point x="211" y="594"/>
      <point x="325" y="594" type="curve" smooth="yes"/>
      <point x="377" y="594"/>
      <point x="431" y="573"/>
      <point x="465" y="539" type="curve"/>
      <point x="523" y="615" type="line"/>
      <point x="489" y="651"/>
      <point x="428" y="686"/>
      <point x="339" y="686" type="curve" smooth="yes"/>
      <point x="137" y="686"/>
      <point x="43" y="537"/>
      <point x="43" y="329" type="curve" smooth="yes"/>
      <point x="43" y="127"/>
      <point x="114" y="-8"/>
      <point x="281" y="-8" type="curve" smooth="yes"/>
      <point x="358" y="-8"/>
      <point x="420" y="23"/>
      <point x="450" y="79" type="curve"/>
      <point x="450" y="65" type="line" smooth="yes"/>
      <point x="450" y="0"/>
      <point x="451" y="-85"/>
      <point x="331" y="-144" type="curve"/>
    </contour>
  </outline>
</glyph>
<glyph name="K" format="1">
  <advance width="591"/>
  <unicode hex="004B"/>
  <outline>
    <contour>
      <point x="70" y="0" type="line"/>
      <point x="189" y="0" type="line"/>
      <point x="189" y="677" type="line"/>
      <point x="70" y="677" type="line"/>
    </contour>
    <contour>
      <point x="539" y="677" type="curve"/>
      <point x="422" y="677" type="line"/>
      <point x="386" y="524"/>
      <point x="325" y="418"/>
      <point x="202" y="373" type="curve"/>
      <point x="202" y="366" type="line"/>
      <point x="460" y="0" type="line"/>
      <point x="598" y="0" type="line"/>
      <point x="352" y="352" type="line"/>
      <point x="436" y="408"/>
      <point x="496" y="477"/>
    </contour>
  </outline>
</glyph>
<glyph name="L" format="1">
  <advance width="442"/>
  <unicode hex="004C"/>
  <outline>
    <contour>
      <point x="70" y="0" type="line"/>
      <point x="442" y="0" type="line"/>
      <point x="442" y="90" type="line"/>
      <point x="189" y="90" type="line"/>
      <point x="189" y="677" type="line"/>
      <point x="70" y="677" type="line"/>
    </contour>
  </outline>
</glyph>
<glyph name="M" format="1">
  <advance width="811"/>
  <unicode hex="004D"/>
  <outline>
    <contour>
      <point x="562" y="260" type="line"/>
      <point x="573" y="288"/>
      <point x="600" y="359"/>
      <point x="624" y="425" type="curve"/>
      <point x="625" y="361"/>
      <point x="628" y="292"/>
      <point x="629" y="259" type="curve" smooth="yes"/>
      <point x="640" y="0" type="line"/>
      <point x="751" y="0" type="line"/>
      <point x="711" y="679" type="line"/>
      <point x="620" y="679" type="line"/>
      <point x="448" y="255" type="line" smooth="yes"/>
      <point x="435" y="223"/>
      <point x="419" y="186"/>
      <point x="406" y="152" type="curve"/>
      <point x="393" y="187"/>
      <point x="376" y="225"/>
      <point x="364" y="255" type="curve" smooth="yes"/>
      <point x="193" y="679" type="line"/>
      <point x="100" y="679" type="line"/>
      <point x="60" y="0" type="line"/>
      <point x="172" y="0" type="line"/>
      <point x="182" y="262" type="line" smooth="yes"/>
      <point x="183" y="288"/>
      <point x="185" y="360"/>
      <point x="186" y="429" type="curve"/>
      <point x="211" y="361"/>
      <point x="240" y="287"/>
      <point x="253" y="257" type="curve" smooth="yes"/>
      <point x="366" y="0" type="line"/>
      <point x="450" y="0" type="line"/>
    </contour>
  </outline>
</glyph>
<glyph name="P" format="1">
  <advance width="535"/>
  <unicode hex="0050"/>
  <outline>
    <contour>
      <point x="70" y="0" type="line"/>
      <point x="189" y="0" type="line"/>
      <point x="189" y="265" type="line"/>
      <point x="259" y="265" type="line" smooth="yes"/>
      <point x="424" y="265"/>
      <point x="509" y="352"/>
      <point x="509" y="475" type="curve" smooth="yes"/>
      <point x="509" y="601"/>
      <point x="433" y="679"/>
      <point x="271" y="679" type="curve" smooth="yes"/>
      <point x="218" y="679"/>
      <point x="90" y="677"/>
      <point x="70" y="677" type="curve"/>
    </contour>
    <contour>
      <point x="189" y="593" type="line"/>
      <point x="205" y="594"/>
      <point x="227" y="594"/>
      <point x="256" y="594" type="curve" smooth="yes"/>
      <point x="354" y="594"/>
      <point x="383" y="533"/>
      <point x="383" y="471" type="curve" smooth="yes"/>
      <point x="383" y="404"/>
      <point x="350" y="354"/>
      <point x="266" y="354" type="curve" smooth="yes"/>
      <point x="189" y="354" type="line"/>
    </contour>
  </outline>
</glyph>
<glyph name="R" format="1">
  <advance width="574"/>
  <unicode hex="0052"/>
  <outline>
    <contour>
      <point x="70" y="0" type="line"/>
      <point x="189" y="0" type="line"/>
      <point x="189" y="293" type="line"/>
      <point x="218" y="293" type="line" smooth="yes"/>
      <point x="318" y="293"/>
      <point x="352" y="212"/>
      <point x="443" y="0" type="curve"/>
      <point x="572" y="0" type="line"/>
      <point x="496" y="177"/>
      <point x="460" y="284"/>
      <point x="385" y="326" type="curve"/>
      <point x="473" y="353"/>
      <point x="509" y="417"/>
      <point x="509" y="494" type="curve" smooth="yes"/>
      <point x="509" y="611"/>
      <point x="436" y="679"/>
      <point x="271" y="679" type="curve" smooth="yes"/>
      <point x="218" y="679"/>
      <point x="90" y="677"/>
      <point x="70" y="677" type="curve"/>
    </contour>
    <contour>
      <point x="189" y="594" type="line"/>
      <point x="256" y="594" type="line" smooth="yes"/>
      <point x="354" y="594"/>
      <point x="383" y="538"/>
      <point x="383" y="479" type="curve" smooth="yes"/>
      <point x="383" y="414"/>
      <point x="340" y="380"/>
      <point x="266" y="380" type="curve" smooth="yes"/>
      <point x="189" y="380" type="line"/>
    </contour>
  </outline>
</glyph>
<glyph name="S" format="1">
  <advance width="507"/>
  <unicode hex="0053"/>
  <outline>
    <contour>
      <point x="265" y="686" type="curve" smooth="yes"/>
      <point x="358" y="686"/>
      <point x="442" y="646"/>
      <point x="461" y="633" type="curve"/>
      <point x="412" y="547" type="line"/>
      <point x="413" y="547"/>
      <point x="333" y="593"/>
      <point x="271" y="593" type="curve" smooth="yes"/>
      <point x="223" y="593"/>
      <point x="182" y="571"/>
      <point x="182" y="523" type="curve" smooth="yes"/>
      <point x="182" y="463"/>
      <point x="220" y="429"/>
      <point x="302" y="397" type="curve" smooth="yes"/>
      <point x="408" y="355"/>
      <point x="472" y="309"/>
      <point x="472" y="198" type="curve" smooth="yes"/>
      <point x="472" y="96"/>
      <point x="393" y="-6"/>
      <point x="247" y="-6" type="curve" smooth="yes"/>
      <point x="143" y="-6"/>
      <point x="57" y="43"/>
      <point x="30" y="59" type="curve"/>
      <point x="72" y="151" type="line"/>
      <point x="71" y="151"/>
      <point x="182" y="87"/>
      <point x="239" y="87" type="curve" smooth="yes"/>
      <point x="309" y="87"/>
      <point x="344" y="124"/>
      <point x="344" y="186" type="curve" smooth="yes"/>
      <point x="344" y="246"/>
      <point x="306" y="268"/>
      <point x="244" y="293" type="curve" smooth="yes"/>
      <point x="124" y="343"/>
      <point x="52" y="390"/>
      <point x="52" y="506" type="curve" smooth="yes"/>
      <point x="52" y="604"/>
      <point x="141" y="686"/>
    </contour>
  </outline>
</glyph>
<glyph name="T" format="1">
  <advance width="493"/>
  <unicode hex="0054"/>
  <outline>
    <contour>
      <point x="10" y="677" type="line"/>
      <point x="10" y="587" type="line"/>
      <point x="181" y="587" type="line"/>
      <point x="181" y="0" type="line"/>
      <point x="299" y="0" type="line"/>
      <point x="299" y="587" type="line"/>
      <point x="467" y="587" type="line"/>
      <point x="482" y="677" type="line"/>
    </contour>
  </outline>
</glyph>
<glyph name="W" format="1">
  <advance width="869"/>
  <unicode hex="0057"/>
  <outline>
    <contour>
      <point x="595" y="0" type="line"/>
      <point x="683" y="0" type="line"/>
      <point x="871" y="677" type="line"/>
      <point x="750" y="677" type="line"/>
      <point x="662" y="336" type="line" smooth="yes"/>
      <point x="646" y="276"/>
      <point x="636" y="226"/>
      <point x="631" y="189" type="curve"/>
      <point x="623" y="226"/>
      <point x="609" y="277"/>
      <point x="591" y="336" type="curve" smooth="yes"/>
      <point x="485" y="677" type="line"/>
      <point x="396" y="677" type="line"/>
      <point x="290" y="336" type="line" smooth="yes"/>
      <point x="272" y="278"/>
      <point x="259" y="233"/>
      <point x="250" y="196" type="curve"/>
      <point x="243" y="233"/>
      <point x="232" y="280"/>
      <point x="217" y="338" type="curve" smooth="yes"/>
      <point x="129" y="677" type="line"/>
      <point x="10" y="677" type="line"/>
      <point x="198" y="0" type="line"/>
      <point x="286" y="0" type="line"/>
      <point x="416" y="411" type="line" smooth="yes"/>
      <point x="425" y="441"/>
      <point x="431" y="466"/>
      <point x="437" y="491" type="curve"/>
      <point x="443" y="466"/>
      <point x="451" y="439"/>
      <point x="461" y="411" type="curve"/>
    </contour>
  </outline>
</glyph>
<glyph name="X" format="1">
  <advance width="582"/>
  <unicode hex="0058"/>
  <outline>
    <contour>
      <point x="137" y="0" type="line"/>
      <point x="249" y="200" type="line"/>
      <point x="291" y="282" type="line"/>
      <point x="306" y="251"/>
      <point x="324" y="218"/>
      <point x="334" y="200" type="curve" smooth="yes"/>
      <point x="446" y="0" type="line"/>
      <point x="582" y="0" type="line"/>
      <point x="372" y="354" type="line"/>
      <point x="563" y="677" type="line"/>
      <point x="429" y="677" type="line"/>
      <point x="333" y="505" type="line" smooth="yes"/>
      <point x="323" y="487"/>
      <point x="306" y="456"/>
      <point x="291" y="426" type="curve"/>
      <point x="276" y="457"/>
      <point x="260" y="487"/>
      <point x="250" y="506" type="curve" smooth="yes"/>
      <point x="155" y="677" type="line"/>
      <point x="20" y="677" type="line"/>
      <point x="210" y="355" type="line"/>
      <point x="0" y="0" type="line"/>
    </contour>
  </outline>
</glyph>
<glyph name="Y" format="1">
  <advance width="542"/>
  <unicode hex="0059"/>
  <outline>
    <contour>
      <point x="275" y="677" type="move" name="topUC"/>
    </contour>
    <contour>
      <point x="210" y="0" type="line"/>
      <point x="329" y="0" type="line"/>
      <point x="329" y="254" type="line"/>
      <point x="542" y="677" type="line"/>
      <point x="416" y="677" type="line"/>
      <point x="271" y="370" type="line"/>
      <point x="129" y="677" type="line"/>
      <point x="0" y="677" type="line"/>
      <point x="210" y="259" type="line"/>
    </contour>
  </outline>
</glyph>
<glyph name="Z" format="1">
  <advance width="528"/>
  <unicode hex="005A"/>
  <outline>
    <contour>
      <point x="493" y="0" type="line"/>
      <point x="493" y="93" type="line"/>
      <point x="267" y="93" type="line" smooth="yes"/>
      <point x="239" y="93"/>
      <point x="216" y="92"/>
      <point x="193" y="91" type="curve"/>
      <point x="481" y="606" type="line"/>
      <point x="481" y="677" type="line"/>
      <point x="41" y="677" type="line"/>
      <point x="57" y="584" type="line"/>
      <point x="248" y="584" type="line" smooth="yes"/>
      <point x="280" y="584"/>
      <point x="307" y="585"/>
      <point x="334" y="587" type="curve"/>
      <point x="40" y="71" type="line"/>
      <point x="40" y="0" type="line"/>
    </contour>
  </outline>
</glyph>
<glyph name="bracketleft" format="1">
  <advance width="369"/>
  <unicode hex="005B"/>
  <outline>
    <contour>
      <point x="80" y="720" type="line"/>
      <point x="80" y="-186" type="line"/>
      <point x="308" y="-186" type="line"/>
      <point x="308" y="-98" type="line"/>
      <point x="189" y="-98" type="line"/>
      <point x="189" y="632" type="line"/>
      <point x="308" y="632" type="line"/>
      <point x="308" y="720" type="line"/>
    </contour>
  </outline>
</glyph>
<glyph name="bracketright" format="1">
  <advance width="369"/>
  <unicode hex="005D"/>
  <outline>
    <contour>
      <point x="289" y="720" type="line"/>
      <point x="61" y="720" type="line"/>
      <point x="61" y="632" type="line"/>
      <point x="180" y="632" type="line"/>
      <point x="180" y="-98" type="line"/>
      <point x="61" y="-98" type="line"/>
      <point x="61" y="-186" type="line"/>
      <point x="289" y="-186" type="line"/>
    </contour>
  </outline>
</glyph>
<glyph name="asciicircum" format="1">
  <advance width="541"/>
  <unicode hex="005E"/>
  <outline>
    <contour>
      <point x="491" y="315" type="line"/>
      <point x="312" y="677" type="line"/>
      <point x="229" y="677" type="line"/>
      <point x="50" y="315" type="line"/>
      <point x="153" y="296" type="line"/>
      <point x="245" y="496" type="line" smooth="yes"/>
      <point x="254" y="516"/>
      <point x="264" y="539"/>
      <point x="271" y="557" type="curve"/>
      <point x="296" y="496" type="line"/>
      <point x="384" y="303" type="line"/>
    </contour>
  </outline>
</glyph>
<glyph name="grave" format="1">
  <advance width="500"/>
  <unicode hex="0060"/>
  <outline>
    <contour>
      <point x="264" y="506" type="move" name="_top"/>
    </contour>
    <contour>
      <point x="313" y="590" type="line"/>
      <point x="143" y="779" type="line"/>
      <point x="67" y="708" type="line"/>
      <point x="146" y="610"/>
      <point x="265" y="538"/>
      <point x="265" y="538" type="curve"/>
    </contour>
  </outline>
</glyph>
<glyph name="b" format="1">
  <advance width="532"/>
  <unicode hex="0062"/>
  <outline>
    <contour>
      <point x="65" y="23" type="line"/>
      <point x="65" y="23"/>
      <point x="178" y="-6"/>
      <point x="258" y="-6" type="curve" smooth="yes"/>
      <point x="400" y="-6"/>
      <point x="497" y="106"/>
      <point x="497" y="258" type="curve" smooth="yes"/>
      <point x="497" y="408"/>
      <point x="438" y="506"/>
      <point x="313" y="506" type="curve" smooth="yes"/>
      <point x="245" y="506"/>
      <point x="203" y="474"/>
      <point x="179" y="420" type="curve"/>
      <point x="179" y="725" type="line"/>
      <point x="65" y="705" type="line"/>
    </contour>
    <contour>
      <point x="294" y="426" type="curve" smooth="yes"/>
      <point x="367" y="426"/>
      <point x="374" y="341"/>
      <point x="374" y="248" type="curve" smooth="yes"/>
      <point x="374" y="147"/>
      <point x="345" y="74"/>
      <point x="245" y="74" type="curve" smooth="yes"/>
      <point x="223" y="74"/>
      <point x="191" y="81"/>
      <point x="179" y="84" type="curve"/>
      <point x="179" y="229" type="line" smooth="yes"/>
      <point x="179" y="327"/>
      <point x="228" y="426"/>
    </contour>
  </outline>
</glyph>
<glyph name="c" format="1">
  <advance width="410"/>
  <unicode hex="0063"/>
  <outline>
    <contour>
      <point x="250" y="0" type="move" name="bottom"/>
    </contour>
    <contour>
      <point x="399" y="442" type="line"/>
      <point x="369" y="484"/>
      <point x="326" y="510"/>
      <point x="264" y="510" type="curve" smooth="yes"/>
      <point x="135" y="510"/>
      <point x="35" y="413"/>
      <point x="35" y="237" type="curve" smooth="yes"/>
      <point x="35" y="91"/>
      <point x="99" y="-7"/>
      <point x="253" y="-7" type="curve" smooth="yes"/>
      <point x="337" y="-7"/>
      <point x="387" y="20"/>
      <point x="394" y="23" type="curve"/>
      <point x="366" y="95" type="line"/>
      <point x="353" y="91"/>
      <point x="305" y="75"/>
      <point x="268" y="75" type="curve" smooth="yes"/>
      <point x="221" y="75"/>
      <point x="158" y="96"/>
      <point x="158" y="252" type="curve" smooth="yes"/>
      <point x="158" y="408"/>
      <point x="222" y="422"/>
      <point x="263" y="422" type="curve" smooth="yes"/>
      <point x="297" y="422"/>
      <point x="315" y="403"/>
      <point x="335" y="381" type="curve"/>
    </contour>
  </outline>
</glyph>
<glyph name="d" format="1">
  <advance width="536"/>
  <unicode hex="0064"/>
  <outline>
    <contour>
      <point x="515" y="28" type="line"/>
      <point x="512" y="35"/>
      <point x="467" y="82"/>
      <point x="467" y="241" type="curve" smooth="yes"/>
      <point x="467" y="705" type="line"/>
      <point x="353" y="725" type="line"/>
      <point x="353" y="499" type="line"/>
      <point x="326" y="503"/>
      <point x="298" y="506"/>
      <point x="274" y="506" type="curve" smooth="yes"/>
      <point x="132" y="506"/>
      <point x="35" y="394"/>
      <point x="35" y="242" type="curve" smooth="yes"/>
      <point x="35" y="92"/>
      <point x="94" y="-6"/>
      <point x="219" y="-6" type="curve" smooth="yes"/>
      <point x="304" y="-6"/>
      <point x="353" y="35"/>
      <point x="375" y="115" type="curve"/>
      <point x="381" y="35"/>
      <point x="422" y="-4"/>
      <point x="426" y="-8" type="curve"/>
    </contour>
    <contour>
      <point x="238" y="75" type="curve" smooth="yes"/>
      <point x="165" y="75"/>
      <point x="158" y="159"/>
      <point x="158" y="252" type="curve" smooth="yes"/>
      <point x="158" y="353"/>
      <point x="187" y="426"/>
      <point x="287" y="426" type="curve" smooth="yes"/>
      <point x="308" y="426"/>
      <point x="340" y="419"/>
      <point x="353" y="415" type="curve"/>
      <point x="353" y="271" type="line" smooth="yes"/>
      <point x="353" y="173"/>
      <point x="304" y="75"/>
    </contour>
  </outline>
</glyph>
<glyph name="f" format="1">
  <advance width="352"/>
  <unicode hex="0066"/>
  <outline>
    <contour>
      <point x="377" y="680" type="line"/>
      <point x="356" y="703"/>
      <point x="324" y="722"/>
      <point x="272" y="722" type="curve" smooth="yes"/>
      <point x="178" y="722"/>
      <point x="94" y="667"/>
      <point x="94" y="559" type="curve" smooth="yes"/>
      <point x="94" y="541"/>
      <point x="96" y="518"/>
      <point x="101" y="498" type="curve"/>
      <point x="14" y="498" type="line"/>
      <point x="14" y="417" type="line"/>
      <point x="104" y="417" type="line"/>
      <point x="104" y="14" type="line" smooth="yes"/>
      <point x="104" y="-28"/>
      <point x="100" y="-96"/>
      <point x="0" y="-147" type="curve"/>
      <point x="46" y="-223" type="line"/>
      <point x="126" y="-182"/>
      <point x="218" y="-134"/>
      <point x="218" y="25" type="curve" smooth="yes"/>
      <point x="218" y="417" type="line"/>
      <point x="322" y="417" type="line"/>
      <point x="336" y="498" type="line"/>
      <point x="212" y="498" type="line"/>
      <point x="206" y="521"/>
      <point x="204" y="539"/>
      <point x="204" y="554" type="curve" smooth="yes"/>
      <point x="204" y="624"/>
      <point x="255" y="634"/>
      <point x="280" y="634" type="curve" smooth="yes"/>
      <point x="298" y="634"/>
      <point x="324" y="619"/>
      <point x="328" y="615" type="curve"/>
    </contour>
  </outline>
</glyph>
<glyph name="g" format="1">
  <advance width="531"/>
  <unicode hex="0067"/>
  <outline>
    <contour>
      <point x="112" y="-175" type="line"/>
      <point x="127" y="-184"/>
      <point x="216" y="-217"/>
      <point x="295" y="-217" type="curve" smooth="yes"/>
      <point x="417" y="-217"/>
      <point x="495" y="-147"/>
      <point x="495" y="-7" type="curve" smooth="yes"/>
      <point x="495" y="73"/>
      <point x="463" y="122"/>
      <point x="465" y="202" type="curve" smooth="yes"/>
      <point x="470" y="477" type="line"/>
      <point x="425" y="488"/>
      <point x="339" y="506"/>
      <point x="274" y="506" type="curve" smooth="yes"/>
      <point x="132" y="506"/>
      <point x="35" y="394"/>
      <point x="35" y="242" type="curve" smooth="yes"/>
      <point x="35" y="92"/>
      <point x="94" y="-6"/>
      <point x="219" y="-6" type="curve" smooth="yes"/>
      <point x="298" y="-6"/>
      <point x="346" y="30"/>
      <point x="369" y="98" type="curve"/>
      <point x="383" y="64"/>
      <point x="391" y="28"/>
      <point x="391" y="-7" type="curve" smooth="yes"/>
      <point x="391" y="-77"/>
      <point x="359" y="-127"/>
      <point x="285" y="-127" type="curve" smooth="yes"/>
      <point x="234" y="-127"/>
      <point x="179" y="-103"/>
      <point x="140" y="-88" type="curve"/>
    </contour>
    <contour>
      <point x="238" y="74" type="curve" smooth="yes"/>
      <point x="165" y="74"/>
      <point x="158" y="159"/>
      <point x="158" y="252" type="curve" smooth="yes"/>
      <point x="158" y="353"/>
      <point x="187" y="426"/>
      <point x="287" y="426" type="curve" smooth="yes"/>
      <point x="308" y="426"/>
      <point x="340" y="419"/>
      <point x="353" y="415" type="curve"/>
      <point x="353" y="263" type="line" smooth="yes"/>
      <point x="353" y="167"/>
      <point x="301" y="74"/>
    </contour>
  </outline>
</glyph>
<glyph name="i" format="1">
  <advance width="256"/>
  <unicode hex="0069"/>
  <outline>
    <contour>
      <point x="170" y="-4" type="curve" smooth="yes"/>
      <point x="217" y="-4"/>
      <point x="241" y="10"/>
      <point x="241" y="10" type="curve"/>
      <point x="229" y="82" type="line"/>
      <point x="229" y="82"/>
      <point x="213" y="80"/>
      <point x="203" y="80" type="curve" smooth="yes"/>
      <point x="184" y="80"/>
      <point x="175" y="89"/>
      <point x="175" y="119" type="curve" smooth="yes"/>
      <point x="175" y="498" type="line"/>
      <point x="61" y="498" type="line"/>
      <point x="61" y="109" type="line" smooth="yes"/>
      <point x="61" y="43"/>
      <point x="100" y="-4"/>
    </contour>
    <contour>
      <point x="120" y="720" type="curve" smooth="yes"/>
      <point x="74" y="720"/>
      <point x="50" y="690"/>
      <point x="50" y="649" type="curve" smooth="yes"/>
      <point x="50" y="612"/>
      <point x="74" y="582"/>
      <point x="117" y="582" type="curve" smooth="yes"/>
      <point x="162" y="582"/>
      <point x="186" y="612"/>
      <point x="186" y="652" type="curve" smooth="yes"/>
      <point x="186" y="692"/>
      <point x="162" y="720"/>
    </contour>
  </outline>
</glyph>
<glyph name="j" format="1">
  <advance width="244"/>
  <unicode hex="006A"/>
  <outline>
    <contour>
      <point x="65" y="13" type="line" smooth="yes"/>
      <point x="65" y="-28"/>
      <point x="60" y="-96"/>
      <point x="-39" y="-147" type="curve"/>
      <point x="7" y="-223" type="line"/>
      <point x="86" y="-182"/>
      <point x="179" y="-135"/>
      <point x="179" y="24" type="curve" smooth="yes"/>
      <point x="179" y="498" type="line"/>
      <point x="65" y="498" type="line"/>
    </contour>
    <contour>
      <point x="123" y="720" type="curve" smooth="yes"/>
      <point x="78" y="720"/>
      <point x="54" y="690"/>
      <point x="54" y="649" type="curve" smooth="yes"/>
      <point x="54" y="612"/>
      <point x="78" y="582"/>
      <point x="120" y="582" type="curve" smooth="yes"/>
      <point x="166" y="582"/>
      <point x="190" y="612"/>
      <point x="190" y="652" type="curve" smooth="yes"/>
      <point x="190" y="692"/>
      <point x="166" y="720"/>
    </contour>
  </outline>
</glyph>
<glyph name="k" format="1">
  <advance width="520"/>
  <unicode hex="006B"/>
  <outline>
    <contour>
      <point x="65" y="705" type="line"/>
      <point x="65" y="0" type="line"/>
      <point x="179" y="0" type="line"/>
      <point x="179" y="321" type="line" smooth="yes"/>
      <point x="179" y="330"/>
      <point x="201" y="426"/>
      <point x="302" y="426" type="curve" smooth="yes"/>
      <point x="339" y="426"/>
      <point x="364" y="406"/>
      <point x="364" y="367" type="curve" smooth="yes"/>
      <point x="364" y="295"/>
      <point x="248" y="264"/>
      <point x="226" y="259" type="curve"/>
      <point x="227" y="249" type="line"/>
      <point x="371" y="0" type="line"/>
      <point x="500" y="0" type="line"/>
      <point x="360" y="223" type="line"/>
      <point x="360" y="223"/>
      <point x="480" y="257"/>
      <point x="480" y="375" type="curve" smooth="yes"/>
      <point x="480" y="458"/>
      <point x="416" y="507"/>
      <point x="333" y="507" type="curve" smooth="yes"/>
      <point x="245" y="507"/>
      <point x="200" y="466"/>
      <point x="179" y="440" type="curve"/>
      <point x="179" y="725" type="line"/>
    </contour>
  </outline>
</glyph>
<glyph name="l" format="1">
  <advance width="291"/>
  <unicode hex="006C"/>
  <outline>
    <contour>
      <point x="171" y="-4" type="curve" smooth="yes"/>
      <point x="235" y="-4"/>
      <point x="276" y="14"/>
      <point x="276" y="14" type="curve"/>
      <point x="262" y="86" type="line"/>
      <point x="262" y="86"/>
      <point x="236" y="78"/>
      <point x="209" y="78" type="curve" smooth="yes"/>
      <point x="186" y="78"/>
      <point x="174" y="89"/>
      <point x="174" y="119" type="curve" smooth="yes"/>
      <point x="174" y="726" type="line"/>
      <point x="60" y="705" type="line"/>
      <point x="60" y="108" type="line" smooth="yes"/>
      <point x="60" y="43"/>
      <point x="96" y="-4"/>
    </contour>
  </outline>
</glyph>
<glyph name="m" format="1">
  <advance width="809"/>
  <unicode hex="006D"/>
  <outline>
    <contour>
      <point x="749" y="0" type="line"/>
      <point x="749" y="334" type="line" smooth="yes"/>
      <point x="749" y="437"/>
      <point x="716" y="506"/>
      <point x="612" y="506" type="curve" smooth="yes"/>
      <point x="550" y="506"/>
      <point x="489" y="479"/>
      <point x="453" y="413" type="curve"/>
      <point x="435" y="467"/>
      <point x="399" y="506"/>
      <point x="331" y="506" type="curve" smooth="yes"/>
      <point x="264" y="506"/>
      <point x="197" y="473"/>
      <point x="164" y="393" type="curve"/>
      <point x="152" y="464"/>
      <point x="115" y="501"/>
      <point x="115" y="501" type="curve"/>
      <point x="25" y="465" type="line"/>
      <point x="25" y="465"/>
      <point x="74" y="411"/>
      <point x="74" y="252" type="curve" smooth="yes"/>
      <point x="74" y="0" type="line"/>
      <point x="188" y="0" type="line"/>
      <point x="188" y="248" type="line" smooth="yes"/>
      <point x="188" y="353"/>
      <point x="243" y="417"/>
      <point x="297" y="417" type="curve" smooth="yes"/>
      <point x="340" y="417"/>
      <point x="355" y="382"/>
      <point x="355" y="326" type="curve" smooth="yes"/>
      <point x="355" y="0" type="line"/>
      <point x="468" y="0" type="line"/>
      <point x="468" y="266" type="line" smooth="yes"/>
      <point x="468" y="358"/>
      <point x="528" y="417"/>
      <point x="578" y="417" type="curve" smooth="yes"/>
      <point x="621" y="417"/>
      <point x="636" y="382"/>
      <point x="636" y="326" type="curve" smooth="yes"/>
      <point x="636" y="0" type="line"/>
    </contour>
  </outline>
</glyph>
<glyph name="n" format="1">
  <advance width="549"/>
  <unicode hex="006E"/>
  <outline>
    <contour>
      <point x="319" y="506" type="move" name="top"/>
    </contour>
    <contour>
      <point x="488" y="0" type="line"/>
      <point x="488" y="334" type="line" smooth="yes"/>
      <point x="488" y="439"/>
      <point x="445" y="506"/>
      <point x="342" y="506" type="curve" smooth="yes"/>
      <point x="270" y="506"/>
      <point x="199" y="473"/>
      <point x="164" y="393" type="curve"/>
      <point x="153" y="464"/>
      <point x="115" y="501"/>
      <point x="115" y="501" type="curve"/>
      <point x="25" y="465" type="line"/>
      <point x="25" y="465"/>
      <point x="74" y="411"/>
      <point x="74" y="252" type="curve" smooth="yes"/>
      <point x="74" y="0" type="line"/>
      <point x="188" y="0" type="line"/>
      <point x="188" y="247" type="line" smooth="yes"/>
      <point x="188" y="352"/>
      <point x="249" y="416"/>
      <point x="309" y="416" type="curve" smooth="yes"/>
      <point x="357" y="416"/>
      <point x="375" y="379"/>
      <point x="375" y="323" type="curve" smooth="yes"/>
      <point x="375" y="0" type="line"/>
    </contour>
  </outline>
</glyph>
<glyph name="o" format="1">
  <advance width="517"/>
  <unicode hex="006F"/>
  <outline>
    <contour>
      <point x="257" y="506" type="move" name="top"/>
    </contour>
    <contour>
      <point x="263" y="510" type="curve" smooth="yes"/>
      <point x="110" y="510"/>
      <point x="35" y="395"/>
      <point x="35" y="244" type="curve" smooth="yes"/>
      <point x="35" y="86"/>
      <point x="101" y="-10"/>
      <point x="254" y="-10" type="curve" smooth="yes"/>
      <point x="407" y="-10"/>
      <point x="482" y="105"/>
      <point x="482" y="255" type="curve" smooth="yes"/>
      <point x="482" y="414"/>
      <point x="416" y="510"/>
    </contour>
    <contour>
      <point x="253" y="426" type="curve" smooth="yes"/>
      <point x="339" y="426"/>
      <point x="359" y="345"/>
      <point x="359" y="245" type="curve" smooth="yes"/>
      <point x="359" y="149"/>
      <point x="341" y="74"/>
      <point x="264" y="74" type="curve" smooth="yes"/>
      <point x="178" y="74"/>
      <point x="158" y="155"/>
      <point x="158" y="254" type="curve" smooth="yes"/>
      <point x="158" y="351"/>
      <point x="176" y="426"/>
    </contour>
  </outline>
</glyph>
<glyph name="q" format="1">
  <advance width="532"/>
  <unicode hex="0071"/>
  <outline>
    <contour>
      <point x="467" y="477" type="line"/>
      <point x="467" y="477"/>
      <point x="354" y="506"/>
      <point x="274" y="506" type="curve" smooth="yes"/>
      <point x="132" y="506"/>
      <point x="35" y="394"/>
      <point x="35" y="242" type="curve" smooth="yes"/>
      <point x="35" y="92"/>
      <point x="94" y="-6"/>
      <point x="219" y="-6" type="curve" smooth="yes"/>
      <point x="283" y="-6"/>
      <point x="326" y="17"/>
      <point x="353" y="62" type="curve"/>
      <point x="353" y="-201" type="line"/>
      <point x="467" y="-222" type="line"/>
    </contour>
    <contour>
      <point x="238" y="75" type="curve" smooth="yes"/>
      <point x="165" y="75"/>
      <point x="158" y="159"/>
      <point x="158" y="252" type="curve" smooth="yes"/>
      <point x="158" y="353"/>
      <point x="187" y="426"/>
      <point x="287" y="426" type="curve" smooth="yes"/>
      <point x="308" y="426"/>
      <point x="340" y="419"/>
      <point x="353" y="415" type="curve"/>
      <point x="353" y="271" type="line" smooth="yes"/>
      <point x="353" y="172"/>
      <point x="303" y="75"/>
    </contour>
  </outline>
</glyph>
<glyph name="r" format="1">
  <advance width="369"/>
  <unicode hex="0072"/>
  <outline>
    <contour>
      <point x="288" y="394" type="curve" smooth="yes"/>
      <point x="321" y="394"/>
      <point x="338" y="383"/>
      <point x="337" y="383" type="curve"/>
      <point x="369" y="494" type="line"/>
      <point x="370" y="494"/>
      <point x="338" y="505"/>
      <point x="307" y="505" type="curve" smooth="yes"/>
      <point x="243" y="505"/>
      <point x="190" y="473"/>
      <point x="163" y="396" type="curve"/>
      <point x="151" y="465"/>
      <point x="115" y="501"/>
      <point x="115" y="501" type="curve"/>
      <point x="25" y="465" type="line"/>
      <point x="25" y="465"/>
      <point x="74" y="411"/>
      <point x="74" y="252" type="curve" smooth="yes"/>
      <point x="74" y="0" type="line"/>
      <point x="188" y="0" type="line"/>
      <point x="188" y="274" type="line" smooth="yes"/>
      <point x="188" y="345"/>
      <point x="240" y="394"/>
    </contour>
  </outline>
</glyph>
<glyph name="w" format="1">
  <advance width="771"/>
  <unicode hex="0077"/>
  <outline>
    <contour>
      <point x="600" y="498" type="line"/>
      <point x="600" y="499"/>
      <point x="611" y="445"/>
      <point x="611" y="384" type="curve" smooth="yes"/>
      <point x="611" y="232"/>
      <point x="608" y="75"/>
      <point x="515" y="75" type="curve" smooth="yes"/>
      <point x="467" y="75"/>
      <point x="447" y="116"/>
      <point x="447" y="172" type="curve" smooth="yes"/>
      <point x="447" y="236"/>
      <point x="449" y="498"/>
      <point x="449" y="498" type="curve"/>
      <point x="336" y="498" type="line"/>
      <point x="336" y="269" type="line" smooth="yes"/>
      <point x="336" y="130"/>
      <point x="302" y="75"/>
      <point x="240" y="75" type="curve" smooth="yes"/>
      <point x="192" y="75"/>
      <point x="174" y="116"/>
      <point x="174" y="172" type="curve" smooth="yes"/>
      <point x="174" y="498" type="line"/>
      <point x="60" y="498" type="line"/>
      <point x="60" y="163" type="line" smooth="yes"/>
      <point x="60" y="57"/>
      <point x="102" y="-7"/>
      <point x="206" y="-7" type="curve" smooth="yes"/>
      <point x="288" y="-7"/>
      <point x="324" y="18"/>
      <point x="348" y="73" type="curve"/>
      <point x="372" y="19"/>
      <point x="415" y="-7"/>
      <point x="481" y="-7" type="curve" smooth="yes"/>
      <point x="665" y="-7"/>
      <point x="726" y="100"/>
      <point x="726" y="396" type="curve" smooth="yes"/>
      <point x="726" y="448"/>
      <point x="716" y="499"/>
      <point x="716" y="498" type="curve"/>
    </contour>
  </outline>
</glyph>
<glyph name="x" format="1">
  <advance width="480"/>
  <unicode hex="0078"/>
  <outline>
    <contour>
      <point x="123" y="0" type="line"/>
      <point x="198" y="128" type="line"/>
      <point x="237" y="202" type="line"/>
      <point x="276" y="129" type="line"/>
      <point x="350" y="0" type="line"/>
      <point x="480" y="0" type="line"/>
      <point x="318" y="263" type="line"/>
      <point x="346" y="294"/>
      <point x="378" y="335"/>
      <point x="400" y="375" type="curve" smooth="yes"/>
      <point x="440" y="449"/>
      <point x="454" y="499"/>
      <point x="454" y="498" type="curve"/>
      <point x="336" y="498" type="line"/>
      <point x="336" y="499"/>
      <point x="323" y="452"/>
      <point x="291" y="393" type="curve" smooth="yes"/>
      <point x="279" y="371"/>
      <point x="263" y="346"/>
      <point x="247" y="322" type="curve"/>
      <point x="234" y="350"/>
      <point x="219" y="382"/>
      <point x="211" y="395" type="curve" smooth="yes"/>
      <point x="148" y="498" type="line"/>
      <point x="16" y="498" type="line"/>
      <point x="162" y="264" type="line"/>
      <point x="-5" y="0" type="line"/>
    </contour>
  </outline>
</glyph>
<glyph name="y" format="1">
  <advance width="538"/>
  <unicode hex="0079"/>
  <outline>
    <contour>
      <point x="268" y="506" type="move" name="top"/>
    </contour>
    <contour>
      <point x="477" y="498" type="line"/>
      <point x="360" y="498" type="line"/>
      <point x="360" y="227" type="line" smooth="yes"/>
      <point x="360" y="141"/>
      <point x="292" y="79"/>
      <point x="240" y="79" type="curve" smooth="yes"/>
      <point x="192" y="79"/>
      <point x="174" y="114"/>
      <point x="174" y="169" type="curve" smooth="yes"/>
      <point x="174" y="498" type="line"/>
      <point x="60" y="498" type="line"/>
      <point x="60" y="166" type="line" smooth="yes"/>
      <point x="60" y="60"/>
      <point x="101" y="-6"/>
      <point x="206" y="-6" type="curve" smooth="yes"/>
      <point x="274" y="-6"/>
      <point x="341" y="22"/>
      <point x="378" y="92" type="curve"/>
      <point x="391" y="59"/>
      <point x="398" y="26"/>
      <point x="398" y="-7" type="curve" smooth="yes"/>
      <point x="398" y="-77"/>
      <point x="366" y="-127"/>
      <point x="292" y="-127" type="curve" smooth="yes"/>
      <point x="241" y="-127"/>
      <point x="185" y="-103"/>
      <point x="147" y="-88" type="curve"/>
      <point x="119" y="-175" type="line"/>
      <point x="134" y="-184"/>
      <point x="222" y="-217"/>
      <point x="302" y="-217" type="curve" smooth="yes"/>
      <point x="424" y="-217"/>
      <point x="502" y="-147"/>
      <point x="502" y="-7" type="curve" smooth="yes"/>
      <point x="502" y="73"/>
      <point x="471" y="122"/>
      <point x="472" y="202" type="curve" smooth="yes"/>
    </contour>
  </outline>
</glyph>
<glyph name="bar" format="1">
  <advance width="309"/>
  <unicode hex="007C"/>
  <outline>
    <contour>
      <point x="100" y="729" type="line"/>
      <point x="100" y="-126" type="line"/>
      <point x="209" y="-126" type="line"/>
      <point x="209" y="729" type="line"/>
    </contour>
  </outline>
</glyph>
<glyph name="braceright" format="1">
  <advance width="364"/>
  <unicode hex="007D"/>
  <outline>
    <contour>
      <point x="247" y="609" type="curve" smooth="yes"/>
      <point x="247" y="678"/>
      <point x="197" y="724"/>
      <point x="106" y="724" type="curve" smooth="yes"/>
      <point x="80" y="724"/>
      <point x="52" y="720"/>
      <point x="20" y="712" type="curve"/>
      <point x="43" y="628" type="line"/>
      <point x="61" y="634"/>
      <point x="75" y="637"/>
      <point x="87" y="637" type="curve" smooth="yes"/>
      <point x="124" y="637"/>
      <point x="134" y="609"/>
      <point x="134" y="593" type="curve" smooth="yes"/>
      <point x="134" y="533"/>
      <point x="121" y="472"/>
      <point x="121" y="420" type="curve" smooth="yes"/>
      <point x="121" y="362"/>
      <point x="132" y="309"/>
      <point x="204" y="265" type="curve"/>
      <point x="132" y="222"/>
      <point x="121" y="169"/>
      <point x="121" y="112" type="curve" smooth="yes"/>
      <point x="121" y="60"/>
      <point x="134" y="-1"/>
      <point x="134" y="-61" type="curve" smooth="yes"/>
      <point x="134" y="-78"/>
      <point x="124" y="-105"/>
      <point x="87" y="-105" type="curve" smooth="yes"/>
      <point x="75" y="-105"/>
      <point x="61" y="-102"/>
      <point x="43" y="-96" type="curve"/>
      <point x="20" y="-180" type="line"/>
      <point x="52" y="-188"/>
      <point x="80" y="-192"/>
      <point x="106" y="-192" type="curve" smooth="yes"/>
      <point x="197" y="-192"/>
      <point x="247" y="-146"/>
      <point x="247" y="-77" type="curve" smooth="yes"/>
      <point x="247" y="-5"/>
      <point x="233" y="67"/>
      <point x="233" y="126" type="curve" smooth="yes"/>
      <point x="233" y="178"/>
      <point x="256" y="215"/>
      <point x="303" y="225" type="curve"/>
      <point x="303" y="307" type="line"/>
      <point x="256" y="317"/>
      <point x="233" y="354"/>
      <point x="233" y="406" type="curve" smooth="yes"/>
      <point x="233" y="465"/>
      <point x="247" y="537"/>
    </contour>
  </outline>
</glyph>
<glyph name="asciitilde" format="1">
  <advance width="516"/>
  <unicode hex="007E"/>
  <outline>
    <contour>
      <point x="174" y="390" type="curve" smooth="yes"/>
      <point x="90" y="390"/>
      <point x="50" y="308"/>
      <point x="50" y="308" type="curve"/>
      <point x="92" y="261" type="line"/>
      <point x="122" y="293"/>
      <point x="134" y="307"/>
      <point x="174" y="307" type="curve" smooth="yes"/>
      <point x="236" y="307"/>
      <point x="264" y="247"/>
      <point x="341" y="247" type="curve" smooth="yes"/>
      <point x="426" y="247"/>
      <point x="466" y="330"/>
      <point x="466" y="330" type="curve"/>
      <point x="424" y="376" type="line"/>
      <point x="395" y="344"/>
      <point x="382" y="330"/>
      <point x="341" y="330" type="curve" smooth="yes"/>
      <point x="280" y="330"/>
      <point x="252" y="390"/>
    </contour>
  </outline>
</glyph>
<glyph name="exclamdown" format="1">
  <advance width="319"/>
  <unicode hex="00A1"/>
  <outline>
    <contour>
      <point x="141" y="355" type="curve" smooth="yes"/>
      <point x="92" y="355"/>
      <point x="66" y="389"/>
      <point x="66" y="432" type="curve" smooth="yes"/>
      <point x="66" y="472"/>
      <point x="92" y="506"/>
      <point x="138" y="506" type="curve" smooth="yes"/>
      <point x="188" y="506"/>
      <point x="214" y="472"/>
      <point x="214" y="430" type="curve" smooth="yes"/>
      <point x="214" y="386"/>
      <point x="188" y="355"/>
    </contour>
    <contour>
      <point x="92" y="275" type="line"/>
      <point x="190" y="275" type="line"/>
      <point x="219" y="-182" type="line"/>
      <point x="92" y="-182" type="line"/>
    </contour>
  </outline>
</glyph>
<glyph name="cent" format="1">
  <advance width="458"/>
  <unicode hex="00A2"/>
  <outline>
    <contour>
      <point x="320" y="-42" type="line"/>
      <point x="320" y="76" type="line"/>
      <point x="378" y="83"/>
      <point x="418" y="103"/>
      <point x="417" y="103" type="curve"/>
      <point x="389" y="175" type="line"/>
      <point x="390" y="176"/>
      <point x="353" y="163"/>
      <point x="320" y="158" type="curve"/>
      <point x="320" y="473" type="line"/>
      <point x="335" y="465"/>
      <point x="347" y="453"/>
      <point x="358" y="441" type="curve"/>
      <point x="423" y="503" type="line"/>
      <point x="399" y="536"/>
      <point x="364" y="559"/>
      <point x="320" y="567" type="curve"/>
      <point x="320" y="654" type="line"/>
      <point x="242" y="654" type="line"/>
      <point x="242" y="568" type="line"/>
      <point x="134" y="551"/>
      <point x="55" y="466"/>
      <point x="55" y="310" type="curve" smooth="yes"/>
      <point x="55" y="174"/>
      <point x="110" y="86"/>
      <point x="242" y="74" type="curve"/>
      <point x="242" y="-42" type="line"/>
    </contour>
    <contour>
      <point x="175" y="325" type="curve" smooth="yes"/>
      <point x="175" y="434"/>
      <point x="208" y="468"/>
      <point x="242" y="478" type="curve"/>
      <point x="242" y="163" type="line"/>
      <point x="207" y="177"/>
      <point x="175" y="217"/>
    </contour>
  </outline>
</glyph>
<glyph name="sterling" format="1">
  <advance width="563"/>
  <unicode hex="00A3"/>
  <outline>
    <contour>
      <point x="60" y="341" type="line"/>
      <point x="60" y="251" type="line"/>
      <point x="127" y="251" type="line"/>
      <point x="121" y="178" type="line" smooth="yes"/>
      <point x="115" y="95"/>
      <point x="67" y="65"/>
      <point x="67" y="65" type="curve"/>
      <point x="95" y="-2" type="line"/>
      <point x="95" y="-2"/>
      <point x="155" y="6"/>
      <point x="233" y="6" type="curve" smooth="yes"/>
      <point x="278" y="6"/>
      <point x="322" y="-6"/>
      <point x="382" y="-6" type="curve" smooth="yes"/>
      <point x="447" y="-6"/>
      <point x="510" y="27"/>
      <point x="509" y="27" type="curve"/>
      <point x="475" y="111" type="line"/>
      <point x="475" y="111"/>
      <point x="422" y="88"/>
      <point x="381" y="88" type="curve" smooth="yes"/>
      <point x="342" y="88"/>
      <point x="306" y="94"/>
      <point x="268" y="94" type="curve" smooth="yes"/>
      <point x="244" y="94"/>
      <point x="219" y="92"/>
      <point x="194" y="88" type="curve"/>
      <point x="211" y="114"/>
      <point x="229" y="152"/>
      <point x="236" y="212" type="curve" smooth="yes"/>
      <point x="240" y="251" type="line"/>
      <point x="418" y="251" type="line"/>
      <point x="432" y="341" type="line"/>
      <point x="250" y="341" type="line"/>
      <point x="260" y="436" type="line" smooth="yes"/>
      <point x="269" y="521"/>
      <point x="314" y="543"/>
      <point x="362" y="543" type="curve" smooth="yes"/>
      <point x="423" y="543"/>
      <point x="464" y="503"/>
      <point x="464" y="504" type="curve"/>
      <point x="512" y="591" type="line"/>
      <point x="493" y="605"/>
      <point x="447" y="636"/>
      <point x="355" y="636" type="curve" smooth="yes"/>
      <point x="231" y="636"/>
      <point x="150" y="554"/>
      <point x="141" y="429" type="curve" smooth="yes"/>
      <point x="134" y="341" type="line"/>
    </contour>
  </outline>
</glyph>
<glyph name="currency" format="1">
  <advance width="588"/>
  <unicode hex="00A4"/>
  <outline>
    <contour>
      <point x="71" y="283" type="curve" smooth="yes"/>
      <point x="71" y="227"/>
      <point x="87" y="178"/>
      <point x="116" y="140" type="curve"/>
      <point x="30" y="63" type="line"/>
      <point x="98" y="-5" type="line"/>
      <point x="181" y="86" type="line"/>
      <point x="213" y="69"/>
      <point x="250" y="60"/>
      <point x="292" y="60" type="curve" smooth="yes"/>
      <point x="335" y="60"/>
      <point x="373" y="70"/>
      <point x="406" y="87" type="curve"/>
      <point x="490" y="-5" type="line"/>
      <point x="558" y="63" type="line"/>
      <point x="470" y="141" type="line"/>
      <point x="500" y="179"/>
      <point x="517" y="227"/>
      <point x="517" y="283" type="curve" smooth="yes"/>
      <point x="517" y="339"/>
      <point x="500" y="388"/>
      <point x="470" y="426" type="curve"/>
      <point x="557" y="504" type="line"/>
      <point x="488" y="572" type="line"/>
      <point x="406" y="481" type="line"/>
      <point x="374" y="498"/>
      <point x="337" y="507"/>
      <point x="294" y="507" type="curve" smooth="yes"/>
      <point x="252" y="507"/>
      <point x="215" y="497"/>
      <point x="183" y="480" type="curve"/>
      <point x="100" y="572" type="line"/>
      <point x="32" y="504" type="line"/>
      <point x="118" y="426" type="line"/>
      <point x="88" y="388"/>
      <point x="71" y="339"/>
    </contour>
    <contour>
      <point x="156" y="288" type="curve" smooth="yes"/>
      <point x="156" y="372"/>
      <point x="212" y="433"/>
      <point x="292" y="433" type="curve" smooth="yes"/>
      <point x="375" y="433"/>
      <point x="432" y="365"/>
      <point x="432" y="280" type="curve" smooth="yes"/>
      <point x="432" y="196"/>
      <point x="375" y="135"/>
      <point x="292" y="135" type="curve" smooth="yes"/>
      <point x="212" y="135"/>
      <point x="156" y="203"/>
    </contour>
  </outline>
</glyph>
<glyph name="yen" format="1">
  <advance width="592"/>
  <unicode hex="00A5"/>
  <outline>
    <contour>
      <point x="114" y="341" type="line"/>
      <point x="114" y="253" type="line"/>
      <point x="234" y="253" type="line"/>
      <point x="234" y="191" type="line"/>
      <point x="114" y="191" type="line"/>
      <point x="114" y="103" type="line"/>
      <point x="234" y="103" type="line"/>
      <point x="234" y="0" type="line"/>
      <point x="353" y="0" type="line"/>
      <point x="353" y="103" type="line"/>
      <point x="475" y="103" type="line"/>
      <point x="475" y="191" type="line"/>
      <point x="353" y="191" type="line"/>
      <point x="353" y="253" type="line"/>
      <point x="475" y="253" type="line"/>
      <point x="475" y="341" type="line"/>
      <point x="393" y="341" type="line"/>
      <point x="561" y="637" type="line"/>
      <point x="435" y="637" type="line"/>
      <point x="295" y="362" type="line"/>
      <point x="159" y="637" type="line"/>
      <point x="30" y="637" type="line"/>
      <point x="196" y="341" type="line"/>
    </contour>
  </outline>
</glyph>
<glyph name="brokenbar" format="1">
  <advance width="309"/>
  <unicode hex="00A6"/>
  <outline>
    <contour>
      <point x="209" y="353" type="line"/>
      <point x="209" y="729" type="line"/>
      <point x="100" y="729" type="line"/>
      <point x="100" y="353" type="line"/>
    </contour>
    <contour>
      <point x="209" y="-126" type="line"/>
      <point x="209" y="248" type="line"/>
      <point x="100" y="248" type="line"/>
      <point x="100" y="-126" type="line"/>
    </contour>
  </outline>
</glyph>
<glyph name="dieresis" format="1">
  <advance width="500"/>
  <unicode hex="00A8"/>
  <outline>
    <contour>
      <point x="250" y="487" type="move" name="_top"/>
    </contour>
    <contour>
      <point x="212" y="632" type="curve" smooth="yes"/>
      <point x="212" y="668"/>
      <point x="190" y="695"/>
      <point x="151" y="695" type="curve" smooth="yes"/>
      <point x="110" y="695"/>
      <point x="88" y="667"/>
      <point x="88" y="630" type="curve" smooth="yes"/>
      <point x="88" y="596"/>
      <point x="110" y="568"/>
      <point x="148" y="568" type="curve" smooth="yes"/>
      <point x="190" y="568"/>
      <point x="212" y="596"/>
    </contour>
    <contour>
      <point x="412" y="632" type="curve" smooth="yes"/>
      <point x="412" y="668"/>
      <point x="390" y="695"/>
      <point x="351" y="695" type="curve" smooth="yes"/>
      <point x="309" y="695"/>
      <point x="287" y="667"/>
      <point x="287" y="630" type="curve" smooth="yes"/>
      <point x="287" y="596"/>
      <point x="309" y="568"/>
      <point x="348" y="568" type="curve" smooth="yes"/>
      <point x="390" y="568"/>
      <point x="412" y="596"/>
    </contour>
  </outline>
</glyph>
<glyph name="registered" format="1">
  <advance width="584"/>
  <unicode hex="00AE"/>
  <outline>
    <contour>
      <point x="60" y="454" type="curve" smooth="yes"/>
      <point x="60" y="318"/>
      <point x="154" y="222"/>
      <point x="290" y="222" type="curve" smooth="yes"/>
      <point x="425" y="222"/>
      <point x="524" y="318"/>
      <point x="524" y="454" type="curve" smooth="yes"/>
      <point x="524" y="590"/>
      <point x="430" y="686"/>
      <point x="294" y="686" type="curve" smooth="yes"/>
      <point x="158" y="686"/>
      <point x="60" y="590"/>
    </contour>
    <contour>
      <point x="125" y="457" type="curve" smooth="yes"/>
      <point x="125" y="557"/>
      <point x="194" y="627"/>
      <point x="290" y="627" type="curve" smooth="yes"/>
      <point x="389" y="627"/>
      <point x="457" y="548"/>
      <point x="457" y="449" type="curve" smooth="yes"/>
      <point x="457" y="349"/>
      <point x="388" y="279"/>
      <point x="290" y="279" type="curve" smooth="yes"/>
      <point x="194" y="279"/>
      <point x="125" y="358"/>
    </contour>
    <contour>
      <point x="284" y="581" type="curve" smooth="yes"/>
      <point x="265" y="581"/>
      <point x="216" y="580"/>
      <point x="209" y="580" type="curve"/>
      <point x="209" y="325" type="line"/>
      <point x="262" y="325" type="line"/>
      <point x="262" y="433" type="line"/>
      <point x="267" y="433" type="line" smooth="yes"/>
      <point x="306" y="431"/>
      <point x="314" y="408"/>
      <point x="345" y="327" type="curve"/>
      <point x="395" y="345" type="line"/>
      <point x="368" y="419"/>
      <point x="359" y="444"/>
      <point x="337" y="451" type="curve"/>
      <point x="361" y="465"/>
      <point x="376" y="485"/>
      <point x="376" y="510" type="curve" smooth="yes"/>
      <point x="376" y="555"/>
      <point x="347" y="581"/>
    </contour>
    <contour>
      <point x="277" y="549" type="line" smooth="yes"/>
      <point x="311" y="549"/>
      <point x="321" y="527"/>
      <point x="321" y="506" type="curve" smooth="yes"/>
      <point x="321" y="481"/>
      <point x="315" y="472"/>
      <point x="285" y="466" type="curve" smooth="yes"/>
      <point x="279" y="465"/>
      <point x="265" y="464"/>
      <point x="262" y="464" type="curve"/>
      <point x="262" y="549" type="line"/>
    </contour>
  </outline>
</glyph>
<glyph name="uni00B2" format="1">
  <advance width="317"/>
  <unicode hex="00B2"/>
  <outline>
    <contour>
      <point x="67" y="584" type="line"/>
      <point x="72" y="587"/>
      <point x="115" y="618"/>
      <point x="151" y="618" type="curve" smooth="yes"/>
      <point x="171" y="618"/>
      <point x="179" y="605"/>
      <point x="179" y="583" type="curve" smooth="yes"/>
      <point x="179" y="552"/>
      <point x="160" y="527"/>
      <point x="110" y="474" type="curve"/>
      <point x="76" y="436"/>
      <point x="36" y="407"/>
      <point x="36" y="407" type="curve"/>
      <point x="36" y="336" type="line"/>
      <point x="276" y="336" type="line"/>
      <point x="276" y="406" type="line"/>
      <point x="140" y="406" type="line"/>
      <point x="157" y="418"/>
      <point x="172" y="430"/>
      <point x="181" y="439" type="curve" smooth="yes"/>
      <point x="234" y="494"/>
      <point x="269" y="540"/>
      <point x="269" y="592" type="curve" smooth="yes"/>
      <point x="269" y="657"/>
      <point x="226" y="686"/>
      <point x="159" y="686" type="curve" smooth="yes"/>
      <point x="113" y="686"/>
      <point x="74" y="668"/>
      <point x="35" y="647" type="curve"/>
    </contour>
  </outline>
</glyph>
<glyph name="acute" format="1">
  <advance width="500"/>
  <unicode hex="00B4"/>
  <outline>
    <contour>
      <point x="234" y="506" type="move" name="_top"/>
    </contour>
    <contour>
      <point x="227" y="538" type="line"/>
      <point x="227" y="538"/>
      <point x="345" y="610"/>
      <point x="424" y="708" type="curve"/>
      <point x="348" y="779" type="line"/>
      <point x="178" y="590" type="line"/>
    </contour>
  </outline>
</glyph>
<glyph name="uni00B5" format="1">
  <advance width="554"/>
  <unicode hex="00B5"/>
  <outline>
    <contour>
      <point x="65" y="-222" type="line"/>
      <point x="179" y="-201" type="line"/>
      <point x="179" y="18" type="line"/>
      <point x="201" y="3"/>
      <point x="228" y="-6"/>
      <point x="260" y="-6" type="curve" smooth="yes"/>
      <point x="322" y="-6"/>
      <point x="367" y="26"/>
      <point x="391" y="86" type="curve"/>
      <point x="404" y="24"/>
      <point x="427" y="2"/>
      <point x="439" y="-8" type="curve"/>
      <point x="528" y="28" type="line"/>
      <point x="524" y="37"/>
      <point x="480" y="83"/>
      <point x="480" y="241" type="curve" smooth="yes"/>
      <point x="480" y="498" type="line"/>
      <point x="366" y="498" type="line"/>
      <point x="366" y="226" type="line" smooth="yes"/>
      <point x="366" y="138"/>
      <point x="313" y="78"/>
      <point x="260" y="78" type="curve" smooth="yes"/>
      <point x="214" y="78"/>
      <point x="179" y="113"/>
      <point x="179" y="164" type="curve" smooth="yes"/>
      <point x="179" y="498" type="line"/>
      <point x="65" y="498" type="line"/>
    </contour>
  </outline>
</glyph>
<glyph name="paragraph" format="1">
  <advance width="578"/>
  <unicode hex="00B6"/>
  <outline>
    <contour>
      <point x="290" y="679" type="line"/>
      <point x="140" y="679"/>
      <point x="60" y="602"/>
      <point x="60" y="473" type="curve" smooth="yes"/>
      <point x="60" y="346"/>
      <point x="137" y="265"/>
      <point x="290" y="265" type="curve"/>
    </contour>
    <contour>
      <point x="507" y="677" type="line"/>
      <point x="389" y="677" type="line"/>
      <point x="389" y="13" type="line" smooth="yes"/>
      <point x="389" y="-29"/>
      <point x="389" y="-93"/>
      <point x="284" y="-144" type="curve"/>
      <point x="330" y="-223" type="line"/>
      <point x="411" y="-182"/>
      <point x="507" y="-136"/>
      <point x="507" y="25" type="curve" smooth="yes"/>
    </contour>
  </outline>
</glyph>
<glyph name="cedilla" format="1">
  <advance width="500"/>
  <unicode hex="00B8"/>
  <outline>
    <contour>
      <point x="238" y="0" type="move" name="_bottom"/>
    </contour>
    <contour>
      <point x="209" y="3" type="line"/>
      <point x="187" y="-85" type="line"/>
      <point x="226" y="-85"/>
      <point x="279" y="-98"/>
      <point x="279" y="-129" type="curve" smooth="yes"/>
      <point x="279" y="-149"/>
      <point x="265" y="-160"/>
      <point x="229" y="-160" type="curve" smooth="yes"/>
      <point x="206" y="-160"/>
      <point x="180" y="-152"/>
      <point x="165" y="-147" type="curve"/>
      <point x="149" y="-201" type="line"/>
      <point x="172" y="-210"/>
      <point x="203" y="-218"/>
      <point x="235" y="-218" type="curve" smooth="yes"/>
      <point x="290" y="-218"/>
      <point x="353" y="-199"/>
      <point x="353" y="-126" type="curve" smooth="yes"/>
      <point x="353" y="-77"/>
      <point x="315" y="-51"/>
      <point x="263" y="-47" type="curve"/>
      <point x="274" y="3" type="line"/>
    </contour>
  </outline>
</glyph>
<glyph name="onequarter" format="1">
  <advance width="711"/>
  <unicode hex="00BC"/>
  <outline>
    <contour>
      <point x="138" y="0" type="line"/>
      <point x="232" y="0" type="line"/>
      <point x="505" y="587" type="line"/>
      <point x="412" y="587" type="line"/>
    </contour>
    <contour>
      <point x="131" y="586" type="line"/>
      <point x="81" y="539"/>
      <point x="4" y="512"/>
      <point x="5" y="513" type="curve"/>
      <point x="40" y="450" type="line"/>
      <point x="64" y="461"/>
      <point x="87" y="477"/>
      <point x="108" y="497" type="curve"/>
      <point x="108" y="245" type="line"/>
      <point x="190" y="245" type="line"/>
      <point x="190" y="586" type="line"/>
    </contour>
    <contour>
      <point x="647" y="267" type="line"/>
      <point x="564" y="247" type="line"/>
      <point x="564" y="155" type="line"/>
      <point x="496" y="155" type="line"/>
      <point x="579" y="350" type="line"/>
      <point x="497" y="350" type="line"/>
      <point x="407" y="132" type="line"/>
      <point x="407" y="93" type="line"/>
      <point x="564" y="93" type="line"/>
      <point x="564" y="0" type="line"/>
      <point x="647" y="0" type="line"/>
      <point x="647" y="93" type="line"/>
      <point x="686" y="93" type="line"/>
      <point x="696" y="155" type="line"/>
      <point x="647" y="155" type="line"/>
    </contour>
  </outline>
</glyph>
<glyph name="onehalf" format="1">
  <advance width="725"/>
  <unicode hex="00BD"/>
  <outline>
    <contour>
      <point x="138" y="0" type="line"/>
      <point x="232" y="0" type="line"/>
      <point x="505" y="587" type="line"/>
      <point x="412" y="587" type="line"/>
    </contour>
    <contour>
      <point x="131" y="586" type="line"/>
      <point x="81" y="539"/>
      <point x="4" y="512"/>
      <point x="5" y="513" type="curve"/>
      <point x="40" y="450" type="line"/>
      <point x="64" y="461"/>
      <point x="87" y="477"/>
      <point x="108" y="497" type="curve"/>
      <point x="108" y="245" type="line"/>
      <point x="190" y="245" type="line"/>
      <point x="190" y="586" type="line"/>
    </contour>
    <contour>
      <point x="475" y="248" type="line"/>
      <point x="480" y="251"/>
      <point x="523" y="281"/>
      <point x="559" y="281" type="curve" smooth="yes"/>
      <point x="578" y="281"/>
      <point x="587" y="268"/>
      <point x="587" y="247" type="curve" smooth="yes"/>
      <point x="587" y="216"/>
      <point x="567" y="191"/>
      <point x="518" y="138" type="curve"/>
      <point x="484" y="99"/>
      <point x="444" y="71"/>
      <point x="444" y="71" type="curve"/>
      <point x="444" y="0" type="line"/>
      <point x="684" y="0" type="line"/>
      <point x="684" y="70" type="line"/>
      <point x="548" y="70" type="line"/>
      <point x="565" y="82"/>
      <point x="579" y="94"/>
      <point x="588" y="103" type="curve" smooth="yes"/>
      <point x="642" y="157"/>
      <point x="677" y="204"/>
      <point x="677" y="256" type="curve" smooth="yes"/>
      <point x="677" y="321"/>
      <point x="633" y="349"/>
      <point x="567" y="349" type="curve" smooth="yes"/>
      <point x="521" y="349"/>
      <point x="482" y="332"/>
      <point x="443" y="310" type="curve"/>
    </contour>
  </outline>
</glyph>
<glyph name="threequarters" format="1">
  <advance width="787"/>
  <unicode hex="00BE"/>
  <outline>
    <contour>
      <point x="189" y="0" type="line"/>
      <point x="282" y="0" type="line"/>
      <point x="556" y="587" type="line"/>
      <point x="462" y="587" type="line"/>
    </contour>
    <contour>
      <point x="699" y="258" type="line"/>
      <point x="616" y="238" type="line"/>
      <point x="616" y="146" type="line"/>
      <point x="549" y="146" type="line"/>
      <point x="632" y="340" type="line"/>
      <point x="550" y="340" type="line"/>
      <point x="459" y="123" type="line"/>
      <point x="459" y="83" type="line"/>
      <point x="616" y="83" type="line"/>
      <point x="616" y="0" type="line"/>
      <point x="699" y="0" type="line"/>
      <point x="699" y="83" type="line"/>
      <point x="738" y="83" type="line"/>
      <point x="748" y="146" type="line"/>
      <point x="699" y="146" type="line"/>
    </contour>
    <contour>
      <point x="134" y="587" type="curve" smooth="yes"/>
      <point x="89" y="587"/>
      <point x="56" y="575"/>
      <point x="15" y="557" type="curve"/>
      <point x="44" y="494" type="line"/>
      <point x="86" y="512"/>
      <point x="108" y="519"/>
      <point x="126" y="519" type="curve" smooth="yes"/>
      <point x="141" y="519"/>
      <point x="150" y="506"/>
      <point x="150" y="492" type="curve" smooth="yes"/>
      <point x="150" y="450"/>
      <point x="92" y="446"/>
      <point x="55" y="435" type="curve"/>
      <point x="76" y="383" type="line"/>
      <point x="76" y="383"/>
      <point x="97" y="389"/>
      <point x="130" y="389" type="curve" smooth="yes"/>
      <point x="155" y="389"/>
      <point x="167" y="370"/>
      <point x="167" y="346" type="curve" smooth="yes"/>
      <point x="167" y="313"/>
      <point x="142" y="298"/>
      <point x="118" y="298" type="curve" smooth="yes"/>
      <point x="77" y="298"/>
      <point x="32" y="325"/>
      <point x="32" y="325" type="curve"/>
      <point x="6" y="264" type="line"/>
      <point x="43" y="244"/>
      <point x="87" y="230"/>
      <point x="121" y="230" type="curve" smooth="yes"/>
      <point x="221" y="230"/>
      <point x="254" y="289"/>
      <point x="254" y="347" type="curve" smooth="yes"/>
      <point x="254" y="384"/>
      <point x="232" y="415"/>
      <point x="194" y="431" type="curve"/>
      <point x="215" y="444"/>
      <point x="239" y="466"/>
      <point x="239" y="504" type="curve" smooth="yes"/>
      <point x="239" y="553"/>
      <point x="202" y="587"/>
    </contour>
  </outline>
</glyph>
<glyph name="questiondown" format="1">
  <advance width="434"/>
  <unicode hex="00BF"/>
  <outline>
    <contour>
      <point x="214" y="-192" type="curve" smooth="yes"/>
      <point x="282" y="-192"/>
      <point x="339" y="-167"/>
      <point x="393" y="-142" type="curve"/>
      <point x="354" y="-63" type="line"/>
      <point x="296" y="-90"/>
      <point x="272" y="-105"/>
      <point x="229" y="-105" type="curve" smooth="yes"/>
      <point x="183" y="-105"/>
      <point x="152" y="-77"/>
      <point x="152" y="-28" type="curve" smooth="yes"/>
      <point x="152" y="51"/>
      <point x="294" y="136"/>
      <point x="294" y="275" type="curve"/>
      <point x="210" y="298" type="line"/>
      <point x="196" y="249"/>
      <point x="163" y="204"/>
      <point x="126" y="158" type="curve" smooth="yes"/>
      <point x="77" y="98"/>
      <point x="24" y="35"/>
      <point x="24" y="-42" type="curve" smooth="yes"/>
      <point x="24" y="-148"/>
      <point x="97" y="-192"/>
    </contour>
    <contour>
      <point x="246" y="355" type="curve" smooth="yes"/>
      <point x="295" y="355"/>
      <point x="321" y="389"/>
      <point x="321" y="432" type="curve" smooth="yes"/>
      <point x="321" y="472"/>
      <point x="295" y="506"/>
      <point x="249" y="506" type="curve" smooth="yes"/>
      <point x="199" y="506"/>
      <point x="173" y="472"/>
      <point x="173" y="430" type="curve" smooth="yes"/>
      <point x="173" y="386"/>
      <point x="199" y="355"/>
    </contour>
  </outline>
</glyph>
<glyph name="Agrave" format="1">
  <advance width="605"/>
  <unicode hex="00C0"/>
  <outline>
    <contour>
      <point x="-5" y="0" type="line"/>
      <point x="113" y="0" type="line"/>
      <point x="177" y="177" type="line"/>
      <point x="421" y="177" type="line"/>
      <point x="483" y="0" type="line"/>
      <point x="610" y="0" type="line"/>
      <point x="349" y="677" type="line"/>
      <point x="255" y="677" type="line"/>
    </contour>
    <contour>
      <point x="209" y="265" type="line"/>
      <point x="250" y="381"/>
      <point x="282" y="485"/>
      <point x="300" y="544" type="curve"/>
      <point x="316" y="489"/>
      <point x="348" y="384"/>
      <point x="390" y="265" type="curve"/>
    </contour>
    <contour>
      <point x="324" y="776" type="line"/>
      <point x="97" y="928" type="line"/>
      <point x="45" y="846" type="line"/>
      <point x="138" y="761"/>
      <point x="297" y="718"/>
      <point x="296" y="718" type="curve"/>
    </contour>
  </outline>
</glyph>
<glyph name="Aacute" format="1">
  <advance width="605"/>
  <unicode hex="00C1"/>
  <outline>
    <contour>
      <point x="-5" y="0" type="line"/>
      <point x="113" y="0" type="line"/>
      <point x="177" y="177" type="line"/>
      <point x="421" y="177" type="line"/>
      <point x="483" y="0" type="line"/>
      <point x="610" y="0" type="line"/>
      <point x="349" y="677" type="line"/>
      <point x="255" y="677" type="line"/>
    </contour>
    <contour>
      <point x="209" y="265" type="line"/>
      <point x="250" y="381"/>
      <point x="282" y="485"/>
      <point x="300" y="544" type="curve"/>
      <point x="316" y="489"/>
      <point x="348" y="384"/>
      <point x="390" y="265" type="curve"/>
    </contour>
    <contour>
      <point x="299" y="718" type="line"/>
      <point x="298" y="718"/>
      <point x="457" y="761"/>
      <point x="550" y="846" type="curve"/>
      <point x="498" y="928" type="line"/>
      <point x="271" y="776" type="line"/>
    </contour>
  </outline>
</glyph>
<glyph name="Acircumflex" format="1">
  <advance width="605"/>
  <unicode hex="00C2"/>
  <outline>
    <contour>
      <point x="-5" y="0" type="line"/>
      <point x="113" y="0" type="line"/>
      <point x="177" y="177" type="line"/>
      <point x="421" y="177" type="line"/>
      <point x="483" y="0" type="line"/>
      <point x="610" y="0" type="line"/>
      <point x="349" y="677" type="line"/>
      <point x="255" y="677" type="line"/>
    </contour>
    <contour>
      <point x="209" y="265" type="line"/>
      <point x="250" y="381"/>
      <point x="282" y="485"/>
      <point x="300" y="544" type="curve"/>
      <point x="316" y="489"/>
      <point x="348" y="384"/>
      <point x="390" y="265" type="curve"/>
    </contour>
    <contour>
      <point x="146" y="718" type="line"/>
      <point x="145" y="717"/>
      <point x="220" y="750"/>
      <point x="300" y="808" type="curve"/>
      <point x="379" y="750"/>
      <point x="455" y="717"/>
      <point x="454" y="718" type="curve"/>
      <point x="498" y="771" type="line"/>
      <point x="300" y="928" type="line"/>
      <point x="102" y="771" type="line"/>
    </contour>
  </outline>
</glyph>
<glyph name="Atilde" format="1">
  <advance width="605"/>
  <unicode hex="00C3"/>
  <outline>
    <contour>
      <point x="-5" y="0" type="line"/>
      <point x="113" y="0" type="line"/>
      <point x="177" y="177" type="line"/>
      <point x="421" y="177" type="line"/>
      <point x="483" y="0" type="line"/>
      <point x="610" y="0" type="line"/>
      <point x="349" y="677" type="line"/>
      <point x="255" y="677" type="line"/>
    </contour>
    <contour>
      <point x="209" y="265" type="line"/>
      <point x="250" y="381"/>
      <point x="282" y="485"/>
      <point x="300" y="544" type="curve"/>
      <point x="316" y="489"/>
      <point x="348" y="384"/>
      <point x="390" y="265" type="curve"/>
    </contour>
    <contour>
      <point x="137" y="760" type="line"/>
      <point x="137" y="760"/>
      <point x="171" y="774"/>
      <point x="216" y="774" type="curve" smooth="yes"/>
      <point x="265" y="774"/>
      <point x="320" y="754"/>
      <point x="369" y="754" type="curve" smooth="yes"/>
      <point x="414" y="754"/>
      <point x="449" y="777"/>
      <point x="449" y="777" type="curve"/>
      <point x="449" y="851" type="line"/>
      <point x="449" y="851"/>
      <point x="414" y="837"/>
      <point x="369" y="837" type="curve" smooth="yes"/>
      <point x="320" y="837"/>
      <point x="265" y="857"/>
      <point x="216" y="857" type="curve" smooth="yes"/>
      <point x="171" y="857"/>
      <point x="137" y="834"/>
      <point x="137" y="834" type="curve"/>
    </contour>
  </outline>
</glyph>
<glyph name="Adieresis" format="1">
  <advance width="605"/>
  <unicode hex="00C4"/>
  <outline>
    <contour>
      <point x="-5" y="0" type="line"/>
      <point x="113" y="0" type="line"/>
      <point x="177" y="177" type="line"/>
      <point x="421" y="177" type="line"/>
      <point x="483" y="0" type="line"/>
      <point x="610" y="0" type="line"/>
      <point x="349" y="677" type="line"/>
      <point x="255" y="677" type="line"/>
    </contour>
    <contour>
      <point x="209" y="265" type="line"/>
      <point x="250" y="381"/>
      <point x="282" y="485"/>
      <point x="300" y="544" type="curve"/>
      <point x="316" y="489"/>
      <point x="348" y="384"/>
      <point x="390" y="265" type="curve"/>
    </contour>
    <contour>
      <point x="264" y="811" type="curve" smooth="yes"/>
      <point x="264" y="847"/>
      <point x="242" y="874"/>
      <point x="203" y="874" type="curve" smooth="yes"/>
      <point x="162" y="874"/>
      <point x="140" y="846"/>
      <point x="140" y="809" type="curve" smooth="yes"/>
      <point x="140" y="775"/>
      <point x="162" y="747"/>
      <point x="200" y="747" type="curve" smooth="yes"/>
      <point x="242" y="747"/>
      <point x="264" y="775"/>
    </contour>
    <contour>
      <point x="464" y="811" type="curve" smooth="yes"/>
      <point x="464" y="847"/>
      <point x="442" y="874"/>
      <point x="403" y="874" type="curve" smooth="yes"/>
      <point x="361" y="874"/>
      <point x="339" y="846"/>
      <point x="339" y="809" type="curve" smooth="yes"/>
      <point x="339" y="775"/>
      <point x="361" y="747"/>
      <point x="400" y="747" type="curve" smooth="yes"/>
      <point x="442" y="747"/>
      <point x="464" y="775"/>
    </contour>
  </outline>
</glyph>
<glyph name="Aring" format="1">
  <advance width="605"/>
  <unicode hex="00C5"/>
  <outline>
    <contour>
      <point x="202" y="727" type="curve" smooth="yes"/>
      <point x="202" y="692"/>
      <point x="217" y="662"/>
      <point x="242" y="644" type="curve"/>
      <point x="-5" y="0" type="line"/>
      <point x="113" y="0" type="line"/>
      <point x="177" y="177" type="line"/>
      <point x="421" y="177" type="line"/>
      <point x="483" y="0" type="line"/>
      <point x="610" y="0" type="line"/>
      <point x="361" y="645" type="line"/>
      <point x="385" y="663"/>
      <point x="401" y="693"/>
      <point x="401" y="727" type="curve" smooth="yes"/>
      <point x="401" y="785"/>
      <point x="360" y="827"/>
      <point x="303" y="827" type="curve" smooth="yes"/>
      <point x="245" y="827"/>
      <point x="202" y="784"/>
    </contour>
    <contour>
      <point x="209" y="265" type="line"/>
      <point x="250" y="381"/>
      <point x="282" y="485"/>
      <point x="300" y="544" type="curve"/>
      <point x="316" y="489"/>
      <point x="348" y="384"/>
      <point x="390" y="265" type="curve"/>
    </contour>
    <contour>
      <point x="258" y="728" type="curve" smooth="yes"/>
      <point x="258" y="759"/>
      <point x="274" y="777"/>
      <point x="301" y="777" type="curve" smooth="yes"/>
      <point x="329" y="777"/>
      <point x="345" y="757"/>
      <point x="345" y="727" type="curve" smooth="yes"/>
      <point x="345" y="700"/>
      <point x="334" y="682"/>
      <point x="314" y="677" type="curve"/>
      <point x="287" y="677" type="line"/>
      <point x="268" y="683"/>
      <point x="258" y="703"/>
    </contour>
  </outline>
</glyph>
<glyph name="Ccedilla" format="1">
  <advance width="523"/>
  <unicode hex="00C7"/>
  <outline>
    <contour>
      <point x="503" y="614" type="line"/>
      <point x="471" y="651"/>
      <point x="422" y="686"/>
      <point x="342" y="686" type="curve" smooth="yes"/>
      <point x="142" y="686"/>
      <point x="47" y="540"/>
      <point x="47" y="330" type="curve" smooth="yes"/>
      <point x="47" y="126"/>
      <point x="128" y="9"/>
      <point x="284" y="-4" type="curve"/>
      <point x="264" y="-85" type="line"/>
      <point x="303" y="-85"/>
      <point x="356" y="-98"/>
      <point x="356" y="-129" type="curve" smooth="yes"/>
      <point x="356" y="-149"/>
      <point x="342" y="-160"/>
      <point x="306" y="-160" type="curve" smooth="yes"/>
      <point x="283" y="-160"/>
      <point x="257" y="-152"/>
      <point x="242" y="-147" type="curve"/>
      <point x="226" y="-201" type="line"/>
      <point x="249" y="-210"/>
      <point x="280" y="-218"/>
      <point x="313" y="-218" type="curve" smooth="yes"/>
      <point x="367" y="-218"/>
      <point x="430" y="-199"/>
      <point x="430" y="-126" type="curve" smooth="yes"/>
      <point x="430" y="-77"/>
      <point x="392" y="-51"/>
      <point x="340" y="-47" type="curve"/>
      <point x="349" y="-5" type="line"/>
      <point x="434" y="1"/>
      <point x="494" y="28"/>
      <point x="493" y="28" type="curve"/>
      <point x="465" y="112" type="line"/>
      <point x="456" y="110"/>
      <point x="400" y="86"/>
      <point x="339" y="86" type="curve" smooth="yes"/>
      <point x="211" y="86"/>
      <point x="176" y="201"/>
      <point x="176" y="341" type="curve" smooth="yes"/>
      <point x="176" y="482"/>
      <point x="216" y="594"/>
      <point x="330" y="594" type="curve" smooth="yes"/>
      <point x="376" y="594"/>
      <point x="410" y="575"/>
      <point x="442" y="541" type="curve"/>
    </contour>
  </outline>
</glyph>
<glyph name="Egrave" format="1">
  <advance width="513"/>
  <unicode hex="00C8"/>
  <outline>
    <contour>
      <point x="70" y="0" type="line"/>
      <point x="487" y="0" type="line"/>
      <point x="487" y="90" type="line"/>
      <point x="189" y="90" type="line"/>
      <point x="189" y="307" type="line"/>
      <point x="407" y="307" type="line"/>
      <point x="422" y="398" type="line"/>
      <point x="189" y="398" type="line"/>
      <point x="189" y="587" type="line"/>
      <point x="472" y="587" type="line"/>
      <point x="472" y="677" type="line"/>
      <point x="70" y="677" type="line"/>
    </contour>
    <contour>
      <point x="307" y="776" type="line"/>
      <point x="80" y="928" type="line"/>
      <point x="28" y="846" type="line"/>
      <point x="121" y="761"/>
      <point x="280" y="718"/>
      <point x="279" y="718" type="curve"/>
    </contour>
  </outline>
</glyph>
<glyph name="Eacute" format="1">
  <advance width="513"/>
  <unicode hex="00C9"/>
  <outline>
    <contour>
      <point x="70" y="0" type="line"/>
      <point x="487" y="0" type="line"/>
      <point x="487" y="90" type="line"/>
      <point x="189" y="90" type="line"/>
      <point x="189" y="307" type="line"/>
      <point x="407" y="307" type="line"/>
      <point x="422" y="398" type="line"/>
      <point x="189" y="398" type="line"/>
      <point x="189" y="587" type="line"/>
      <point x="472" y="587" type="line"/>
      <point x="472" y="677" type="line"/>
      <point x="70" y="677" type="line"/>
    </contour>
    <contour>
      <point x="283" y="718" type="line"/>
      <point x="282" y="718"/>
      <point x="441" y="761"/>
      <point x="534" y="846" type="curve"/>
      <point x="482" y="928" type="line"/>
      <point x="255" y="776" type="line"/>
    </contour>
  </outline>
</glyph>
<glyph name="Ecircumflex" format="1">
  <advance width="513"/>
  <unicode hex="00CA"/>
  <outline>
    <contour>
      <point x="70" y="0" type="line"/>
      <point x="487" y="0" type="line"/>
      <point x="487" y="90" type="line"/>
      <point x="189" y="90" type="line"/>
      <point x="189" y="307" type="line"/>
      <point x="407" y="307" type="line"/>
      <point x="422" y="398" type="line"/>
      <point x="189" y="398" type="line"/>
      <point x="189" y="587" type="line"/>
      <point x="472" y="587" type="line"/>
      <point x="472" y="677" type="line"/>
      <point x="70" y="677" type="line"/>
    </contour>
    <contour>
      <point x="129" y="718" type="line"/>
      <point x="128" y="717"/>
      <point x="203" y="750"/>
      <point x="283" y="808" type="curve"/>
      <point x="362" y="750"/>
      <point x="438" y="717"/>
      <point x="437" y="718" type="curve"/>
      <point x="481" y="771" type="line"/>
      <point x="283" y="928" type="line"/>
      <point x="85" y="771" type="line"/>
    </contour>
  </outline>
</glyph>
<glyph name="Igrave" format="1">
  <advance width="259"/>
  <unicode hex="00CC"/>
  <outline>
    <contour>
      <point x="70" y="0" type="line"/>
      <point x="189" y="0" type="line"/>
      <point x="189" y="677" type="line"/>
      <point x="70" y="677" type="line"/>
    </contour>
    <contour>
      <point x="154" y="776" type="line"/>
      <point x="-73" y="928" type="line"/>
      <point x="-125" y="846" type="line"/>
      <point x="-32" y="761"/>
      <point x="127" y="718"/>
      <point x="126" y="718" type="curve"/>
    </contour>
  </outline>
</glyph>
<glyph name="Icircumflex" format="1">
  <advance width="259"/>
  <unicode hex="00CE"/>
  <outline>
    <contour>
      <point x="70" y="0" type="line"/>
      <point x="189" y="0" type="line"/>
      <point x="189" y="677" type="line"/>
      <point x="70" y="677" type="line"/>
    </contour>
    <contour>
      <point x="-24" y="718" type="line"/>
      <point x="-25" y="717"/>
      <point x="50" y="750"/>
      <point x="130" y="808" type="curve"/>
      <point x="209" y="750"/>
      <point x="285" y="717"/>
      <point x="284" y="718" type="curve"/>
      <point x="328" y="771" type="line"/>
      <point x="130" y="928" type="line"/>
      <point x="-68" y="771" type="line"/>
    </contour>
  </outline>
</glyph>
<glyph name="Idieresis" format="1">
  <advance width="259"/>
  <unicode hex="00CF"/>
  <outline>
    <contour>
      <point x="70" y="0" type="line"/>
      <point x="189" y="0" type="line"/>
      <point x="189" y="677" type="line"/>
      <point x="70" y="677" type="line"/>
    </contour>
    <contour>
      <point x="92" y="811" type="curve" smooth="yes"/>
      <point x="92" y="847"/>
      <point x="70" y="874"/>
      <point x="31" y="874" type="curve" smooth="yes"/>
      <point x="-10" y="874"/>
      <point x="-32" y="846"/>
      <point x="-32" y="809" type="curve" smooth="yes"/>
      <point x="-32" y="775"/>
      <point x="-10" y="747"/>
      <point x="28" y="747" type="curve" smooth="yes"/>
      <point x="70" y="747"/>
      <point x="92" y="775"/>
    </contour>
    <contour>
      <point x="292" y="811" type="curve" smooth="yes"/>
      <point x="292" y="847"/>
      <point x="270" y="874"/>
      <point x="231" y="874" type="curve" smooth="yes"/>
      <point x="189" y="874"/>
      <point x="167" y="846"/>
      <point x="167" y="809" type="curve" smooth="yes"/>
      <point x="167" y="775"/>
      <point x="189" y="747"/>
      <point x="228" y="747" type="curve" smooth="yes"/>
      <point x="270" y="747"/>
      <point x="292" y="775"/>
    </contour>
  </outline>
</glyph>
<glyph name="Eth" format="1">
  <advance width="643"/>
  <unicode hex="00D0"/>
  <outline>
    <contour>
      <point x="70" y="0" type="line"/>
      <point x="91" y="0"/>
      <point x="171" y="-2"/>
      <point x="253" y="-2" type="curve" smooth="yes"/>
      <point x="492" y="-2"/>
      <point x="600" y="120"/>
      <point x="600" y="343" type="curve" smooth="yes"/>
      <point x="600" y="564"/>
      <point x="491" y="679"/>
      <point x="266" y="679" type="curve" smooth="yes"/>
      <point x="204" y="679"/>
      <point x="90" y="677"/>
      <point x="70" y="677" type="curve"/>
      <point x="70" y="391" type="line"/>
      <point x="0" y="391" type="line"/>
      <point x="0" y="303" type="line"/>
      <point x="70" y="303" type="line"/>
    </contour>
    <contour>
      <point x="252" y="590" type="curve" smooth="yes"/>
      <point x="412" y="590"/>
      <point x="471" y="487"/>
      <point x="471" y="332" type="curve" smooth="yes"/>
      <point x="471" y="170"/>
      <point x="407" y="87"/>
      <point x="268" y="87" type="curve" smooth="yes"/>
      <point x="224" y="87"/>
      <point x="204" y="87"/>
      <point x="189" y="88" type="curve"/>
      <point x="189" y="303" type="line"/>
      <point x="369" y="303" type="line"/>
      <point x="369" y="391" type="line"/>
      <point x="189" y="391" type="line"/>
      <point x="189" y="589" type="line"/>
      <point x="201" y="589"/>
      <point x="222" y="590"/>
    </contour>
  </outline>
</glyph>
<glyph name="Ntilde" format="1">
  <advance width="659"/>
  <unicode hex="00D1"/>
  <outline>
    <contour>
      <point x="473" y="323" type="line" smooth="yes"/>
      <point x="473" y="292"/>
      <point x="476" y="246"/>
      <point x="479" y="203" type="curve"/>
      <point x="453" y="243"/>
      <point x="424" y="289"/>
      <point x="398" y="327" type="curve" smooth="yes"/>
      <point x="163" y="679" type="line"/>
      <point x="70" y="679" type="line"/>
      <point x="70" y="0" type="line"/>
      <point x="189" y="0" type="line"/>
      <point x="186" y="354" type="line" smooth="yes"/>
      <point x="186" y="396"/>
      <point x="182" y="445"/>
      <point x="178" y="488" type="curve"/>
      <point x="204" y="447"/>
      <point x="237" y="393"/>
      <point x="262" y="355" type="curve" smooth="yes"/>
      <point x="490" y="-1" type="line"/>
      <point x="589" y="-1" type="line"/>
      <point x="589" y="677" type="line"/>
      <point x="470" y="677" type="line"/>
    </contour>
    <contour>
      <point x="173" y="768" type="line"/>
      <point x="173" y="768"/>
      <point x="207" y="782"/>
      <point x="252" y="782" type="curve" smooth="yes"/>
      <point x="301" y="782"/>
      <point x="356" y="762"/>
      <point x="405" y="762" type="curve" smooth="yes"/>
      <point x="450" y="762"/>
      <point x="485" y="785"/>
      <point x="485" y="785" type="curve"/>
      <point x="485" y="859" type="line"/>
      <point x="485" y="859"/>
      <point x="450" y="845"/>
      <point x="405" y="845" type="curve" smooth="yes"/>
      <point x="356" y="845"/>
      <point x="301" y="865"/>
      <point x="252" y="865" type="curve" smooth="yes"/>
      <point x="207" y="865"/>
      <point x="173" y="842"/>
      <point x="173" y="842" type="curve"/>
    </contour>
  </outline>
</glyph>
<glyph name="Oacute" format="1">
  <advance width="668"/>
  <unicode hex="00D3"/>
  <outline>
    <contour>
      <point x="341" y="686" type="curve" smooth="yes"/>
      <point x="138" y="686"/>
      <point x="45" y="539"/>
      <point x="45" y="330" type="curve" smooth="yes"/>
      <point x="45" y="118"/>
      <point x="128" y="-6"/>
      <point x="328" y="-6" type="curve" smooth="yes"/>
      <point x="530" y="-6"/>
      <point x="623" y="136"/>
      <point x="623" y="344" type="curve" smooth="yes"/>
      <point x="623" y="555"/>
      <point x="540" y="686"/>
    </contour>
    <contour>
      <point x="327" y="594" type="curve" smooth="yes"/>
      <point x="465" y="594"/>
      <point x="495" y="469"/>
      <point x="495" y="334" type="curve" smooth="yes"/>
      <point x="495" y="192"/>
      <point x="458" y="86"/>
      <point x="342" y="86" type="curve" smooth="yes"/>
      <point x="204" y="86"/>
      <point x="174" y="206"/>
      <point x="174" y="341" type="curve" smooth="yes"/>
      <point x="174" y="484"/>
      <point x="211" y="594"/>
    </contour>
    <contour>
      <point x="331" y="718" type="line"/>
      <point x="330" y="718"/>
      <point x="489" y="761"/>
      <point x="582" y="846" type="curve"/>
      <point x="530" y="928" type="line"/>
      <point x="303" y="776" type="line"/>
    </contour>
  </outline>
</glyph>
<glyph name="Ocircumflex" format="1">
  <advance width="668"/>
  <unicode hex="00D4"/>
  <outline>
    <contour>
      <point x="341" y="686" type="curve" smooth="yes"/>
      <point x="138" y="686"/>
      <point x="45" y="539"/>
      <point x="45" y="330" type="curve" smooth="yes"/>
      <point x="45" y="118"/>
      <point x="128" y="-6"/>
      <point x="328" y="-6" type="curve" smooth="yes"/>
      <point x="530" y="-6"/>
      <point x="623" y="136"/>
      <point x="623" y="344" type="curve" smooth="yes"/>
      <point x="623" y="555"/>
      <point x="540" y="686"/>
    </contour>
    <contour>
      <point x="327" y="594" type="curve" smooth="yes"/>
      <point x="465" y="594"/>
      <point x="495" y="469"/>
      <point x="495" y="334" type="curve" smooth="yes"/>
      <point x="495" y="192"/>
      <point x="458" y="86"/>
      <point x="342" y="86" type="curve" smooth="yes"/>
      <point x="204" y="86"/>
      <point x="174" y="206"/>
      <point x="174" y="341" type="curve" smooth="yes"/>
      <point x="174" y="484"/>
      <point x="211" y="594"/>
    </contour>
    <contour>
      <point x="178" y="718" type="line"/>
      <point x="177" y="717"/>
      <point x="252" y="750"/>
      <point x="332" y="808" type="curve"/>
      <point x="411" y="750"/>
      <point x="487" y="717"/>
      <point x="486" y="718" type="curve"/>
      <point x="530" y="771" type="line"/>
      <point x="332" y="928" type="line"/>
      <point x="134" y="771" type="line"/>
    </contour>
  </outline>
</glyph>
<glyph name="Otilde" format="1">
  <advance width="668"/>
  <unicode hex="00D5"/>
  <outline>
    <contour>
      <point x="341" y="686" type="curve" smooth="yes"/>
      <point x="138" y="686"/>
      <point x="45" y="539"/>
      <point x="45" y="330" type="curve" smooth="yes"/>
      <point x="45" y="118"/>
      <point x="128" y="-6"/>
      <point x="328" y="-6" type="curve" smooth="yes"/>
      <point x="530" y="-6"/>
      <point x="623" y="136"/>
      <point x="623" y="344" type="curve" smooth="yes"/>
      <point x="623" y="555"/>
      <point x="540" y="686"/>
    </contour>
    <contour>
      <point x="327" y="594" type="curve" smooth="yes"/>
      <point x="465" y="594"/>
      <point x="495" y="469"/>
      <point x="495" y="334" type="curve" smooth="yes"/>
      <point x="495" y="192"/>
      <point x="458" y="86"/>
      <point x="342" y="86" type="curve" smooth="yes"/>
      <point x="204" y="86"/>
      <point x="174" y="206"/>
      <point x="174" y="341" type="curve" smooth="yes"/>
      <point x="174" y="484"/>
      <point x="211" y="594"/>
    </contour>
    <contour>
      <point x="169" y="760" type="line"/>
      <point x="169" y="760"/>
      <point x="203" y="774"/>
      <point x="248" y="774" type="curve" smooth="yes"/>
      <point x="297" y="774"/>
      <point x="352" y="754"/>
      <point x="401" y="754" type="curve" smooth="yes"/>
      <point x="446" y="754"/>
      <point x="481" y="777"/>
      <point x="481" y="777" type="curve"/>
      <point x="481" y="851" type="line"/>
      <point x="481" y="851"/>
      <point x="446" y="837"/>
      <point x="401" y="837" type="curve" smooth="yes"/>
      <point x="352" y="837"/>
      <point x="297" y="857"/>
      <point x="248" y="857" type="curve" smooth="yes"/>
      <point x="203" y="857"/>
      <point x="169" y="834"/>
      <point x="169" y="834" type="curve"/>
    </contour>
  </outline>
</glyph>
<glyph name="Odieresis" format="1">
  <advance width="668"/>
  <unicode hex="00D6"/>
  <outline>
    <contour>
      <point x="341" y="686" type="curve" smooth="yes"/>
      <point x="138" y="686"/>
      <point x="45" y="539"/>
      <point x="45" y="330" type="curve" smooth="yes"/>
      <point x="45" y="118"/>
      <point x="128" y="-6"/>
      <point x="328" y="-6" type="curve" smooth="yes"/>
      <point x="530" y="-6"/>
      <point x="623" y="136"/>
      <point x="623" y="344" type="curve" smooth="yes"/>
      <point x="623" y="555"/>
      <point x="540" y="686"/>
    </contour>
    <contour>
      <point x="327" y="594" type="curve" smooth="yes"/>
      <point x="465" y="594"/>
      <point x="495" y="469"/>
      <point x="495" y="334" type="curve" smooth="yes"/>
      <point x="495" y="192"/>
      <point x="458" y="86"/>
      <point x="342" y="86" type="curve" smooth="yes"/>
      <point x="204" y="86"/>
      <point x="174" y="206"/>
      <point x="174" y="341" type="curve" smooth="yes"/>
      <point x="174" y="484"/>
      <point x="211" y="594"/>
    </contour>
    <contour>
      <point x="296" y="811" type="curve" smooth="yes"/>
      <point x="296" y="847"/>
      <point x="274" y="874"/>
      <point x="235" y="874" type="curve" smooth="yes"/>
      <point x="194" y="874"/>
      <point x="172" y="846"/>
      <point x="172" y="809" type="curve" smooth="yes"/>
      <point x="172" y="775"/>
      <point x="194" y="747"/>
      <point x="232" y="747" type="curve" smooth="yes"/>
      <point x="274" y="747"/>
      <point x="296" y="775"/>
    </contour>
    <contour>
      <point x="496" y="811" type="curve" smooth="yes"/>
      <point x="496" y="847"/>
      <point x="474" y="874"/>
      <point x="435" y="874" type="curve" smooth="yes"/>
      <point x="393" y="874"/>
      <point x="371" y="846"/>
      <point x="371" y="809" type="curve" smooth="yes"/>
      <point x="371" y="775"/>
      <point x="393" y="747"/>
      <point x="432" y="747" type="curve" smooth="yes"/>
      <point x="474" y="747"/>
      <point x="496" y="775"/>
    </contour>
  </outline>
</glyph>
<glyph name="multiply" format="1">
  <advance width="516"/>
  <unicode hex="00D7"/>
  <outline>
    <contour>
      <point x="67" y="432" type="line"/>
      <point x="195" y="304" type="line"/>
      <point x="60" y="170" type="line"/>
      <point x="125" y="104" type="line"/>
      <point x="261" y="239" type="line"/>
      <point x="395" y="104" type="line"/>
      <point x="456" y="167" type="line"/>
      <point x="322" y="300" type="line"/>
      <point x="452" y="430" type="line"/>
      <point x="387" y="497" type="line"/>
      <point x="256" y="365" type="line"/>
      <point x="128" y="495" type="line"/>
    </contour>
  </outline>
</glyph>
<glyph name="Oslash" format="1">
  <advance width="668"/>
  <unicode hex="00D8"/>
  <outline>
    <contour>
      <point x="341" y="686" type="curve" smooth="yes"/>
      <point x="138" y="686"/>
      <point x="45" y="539"/>
      <point x="45" y="330" type="curve" smooth="yes"/>
      <point x="45" y="194"/>
      <point x="79" y="94"/>
      <point x="156" y="40" type="curve"/>
      <point x="131" y="-23" type="line"/>
      <point x="228" y="-63" type="line"/>
      <point x="253" y="0" type="line"/>
      <point x="276" y="-4"/>
      <point x="301" y="-6"/>
      <point x="328" y="-6" type="curve" smooth="yes"/>
      <point x="530" y="-6"/>
      <point x="623" y="136"/>
      <point x="623" y="344" type="curve" smooth="yes"/>
      <point x="623" y="479"/>
      <point x="588" y="582"/>
      <point x="511" y="638" type="curve"/>
      <point x="537" y="702" type="line"/>
      <point x="439" y="742" type="line"/>
      <point x="414" y="679" type="line"/>
      <point x="391" y="684"/>
      <point x="367" y="686"/>
    </contour>
    <contour>
      <point x="495" y="334" type="curve" smooth="yes"/>
      <point x="495" y="192"/>
      <point x="458" y="86"/>
      <point x="342" y="86" type="curve" smooth="yes"/>
      <point x="323" y="86"/>
      <point x="305" y="88"/>
      <point x="290" y="92" type="curve"/>
      <point x="462" y="516" type="line"/>
      <point x="487" y="468"/>
      <point x="495" y="402"/>
    </contour>
    <contour>
      <point x="327" y="594" type="curve" smooth="yes"/>
      <point x="345" y="594"/>
      <point x="362" y="591"/>
      <point x="377" y="587" type="curve"/>
      <point x="206" y="163" type="line"/>
      <point x="181" y="210"/>
      <point x="174" y="273"/>
      <point x="174" y="341" type="curve" smooth="yes"/>
      <point x="174" y="484"/>
      <point x="211" y="594"/>
    </contour>
  </outline>
</glyph>
<glyph name="Uacute" format="1">
  <advance width="635"/>
  <unicode hex="00DA"/>
  <outline>
    <contour>
      <point x="60" y="677" type="line"/>
      <point x="60" y="249" type="line" smooth="yes"/>
      <point x="60" y="111"/>
      <point x="122" y="-6"/>
      <point x="310" y="-6" type="curve" smooth="yes"/>
      <point x="508" y="-6"/>
      <point x="575" y="111"/>
      <point x="575" y="249" type="curve" smooth="yes"/>
      <point x="575" y="677" type="line"/>
      <point x="456" y="677" type="line"/>
      <point x="456" y="258" type="line" smooth="yes"/>
      <point x="456" y="150"/>
      <point x="413" y="86"/>
      <point x="323" y="86" type="curve" smooth="yes"/>
      <point x="234" y="86"/>
      <point x="178" y="134"/>
      <point x="178" y="258" type="curve" smooth="yes"/>
      <point x="178" y="677" type="line"/>
    </contour>
    <contour>
      <point x="318" y="718" type="line"/>
      <point x="317" y="718"/>
      <point x="476" y="761"/>
      <point x="569" y="846" type="curve"/>
      <point x="517" y="928" type="line"/>
      <point x="290" y="776" type="line"/>
    </contour>
  </outline>
</glyph>
<glyph name="Ucircumflex" format="1">
  <advance width="635"/>
  <unicode hex="00DB"/>
  <outline>
    <contour>
      <point x="60" y="677" type="line"/>
      <point x="60" y="249" type="line" smooth="yes"/>
      <point x="60" y="111"/>
      <point x="122" y="-6"/>
      <point x="310" y="-6" type="curve" smooth="yes"/>
      <point x="508" y="-6"/>
      <point x="575" y="111"/>
      <point x="575" y="249" type="curve" smooth="yes"/>
      <point x="575" y="677" type="line"/>
      <point x="456" y="677" type="line"/>
      <point x="456" y="258" type="line" smooth="yes"/>
      <point x="456" y="150"/>
      <point x="413" y="86"/>
      <point x="323" y="86" type="curve" smooth="yes"/>
      <point x="234" y="86"/>
      <point x="178" y="134"/>
      <point x="178" y="258" type="curve" smooth="yes"/>
      <point x="178" y="677" type="line"/>
    </contour>
    <contour>
      <point x="164" y="718" type="line"/>
      <point x="163" y="717"/>
      <point x="238" y="750"/>
      <point x="318" y="808" type="curve"/>
      <point x="397" y="750"/>
      <point x="473" y="717"/>
      <point x="472" y="718" type="curve"/>
      <point x="516" y="771" type="line"/>
      <point x="318" y="928" type="line"/>
      <point x="120" y="771" type="line"/>
    </contour>
  </outline>
</glyph>
<glyph name="Udieresis" format="1">
  <advance width="635"/>
  <unicode hex="00DC"/>
  <outline>
    <contour>
      <point x="60" y="677" type="line"/>
      <point x="60" y="249" type="line" smooth="yes"/>
      <point x="60" y="111"/>
      <point x="122" y="-6"/>
      <point x="310" y="-6" type="curve" smooth="yes"/>
      <point x="508" y="-6"/>
      <point x="575" y="111"/>
      <point x="575" y="249" type="curve" smooth="yes"/>
      <point x="575" y="677" type="line"/>
      <point x="456" y="677" type="line"/>
      <point x="456" y="258" type="line" smooth="yes"/>
      <point x="456" y="150"/>
      <point x="413" y="86"/>
      <point x="323" y="86" type="curve" smooth="yes"/>
      <point x="234" y="86"/>
      <point x="178" y="134"/>
      <point x="178" y="258" type="curve" smooth="yes"/>
      <point x="178" y="677" type="line"/>
    </contour>
    <contour>
      <point x="279" y="811" type="curve" smooth="yes"/>
      <point x="279" y="847"/>
      <point x="257" y="874"/>
      <point x="218" y="874" type="curve" smooth="yes"/>
      <point x="177" y="874"/>
      <point x="155" y="846"/>
      <point x="155" y="809" type="curve" smooth="yes"/>
      <point x="155" y="775"/>
      <point x="177" y="747"/>
      <point x="215" y="747" type="curve" smooth="yes"/>
      <point x="257" y="747"/>
      <point x="279" y="775"/>
    </contour>
    <contour>
      <point x="479" y="811" type="curve" smooth="yes"/>
      <point x="479" y="847"/>
      <point x="457" y="874"/>
      <point x="418" y="874" type="curve" smooth="yes"/>
      <point x="376" y="874"/>
      <point x="354" y="846"/>
      <point x="354" y="809" type="curve" smooth="yes"/>
      <point x="354" y="775"/>
      <point x="376" y="747"/>
      <point x="415" y="747" type="curve" smooth="yes"/>
      <point x="457" y="747"/>
      <point x="479" y="775"/>
    </contour>
  </outline>
</glyph>
<glyph name="Yacute" format="1">
  <advance width="543"/>
  <unicode hex="00DD"/>
  <outline>
    <contour>
      <point x="210" y="0" type="line"/>
      <point x="329" y="0" type="line"/>
      <point x="329" y="254" type="line"/>
      <point x="542" y="677" type="line"/>
      <point x="416" y="677" type="line"/>
      <point x="271" y="370" type="line"/>
      <point x="129" y="677" type="line"/>
      <point x="0" y="677" type="line"/>
      <point x="210" y="259" type="line"/>
    </contour>
    <contour>
      <point x="273" y="718" type="line"/>
      <point x="272" y="718"/>
      <point x="431" y="761"/>
      <point x="524" y="846" type="curve"/>
      <point x="472" y="928" type="line"/>
      <point x="245" y="776" type="line"/>
    </contour>
  </outline>
</glyph>
<glyph name="Thorn" format="1">
  <advance width="537"/>
  <unicode hex="00DE"/>
  <outline>
    <contour>
      <point x="70" y="0" type="line"/>
      <point x="189" y="0" type="line"/>
      <point x="189" y="142" type="line"/>
      <point x="259" y="142" type="line" smooth="yes"/>
      <point x="427" y="142"/>
      <point x="511" y="225"/>
      <point x="511" y="352" type="curve" smooth="yes"/>
      <point x="511" y="481"/>
      <point x="436" y="555"/>
      <point x="271" y="555" type="curve" smooth="yes"/>
      <point x="189" y="555" type="line"/>
      <point x="189" y="677" type="line"/>
      <point x="70" y="677" type="line"/>
    </contour>
    <contour>
      <point x="189" y="470" type="line"/>
      <point x="205" y="471"/>
      <point x="227" y="471"/>
      <point x="256" y="471" type="curve" smooth="yes"/>
      <point x="354" y="471"/>
      <point x="383" y="411"/>
      <point x="383" y="348" type="curve" smooth="yes"/>
      <point x="383" y="281"/>
      <point x="350" y="230"/>
      <point x="266" y="230" type="curve" smooth="yes"/>
      <point x="189" y="230" type="line"/>
    </contour>
  </outline>
</glyph>
<glyph name="acircumflex" format="1">
  <advance width="536"/>
  <unicode hex="00E2"/>
  <outline>
    <contour>
      <point x="467" y="477" type="line"/>
      <point x="458" y="479"/>
      <point x="354" y="506"/>
      <point x="274" y="506" type="curve" smooth="yes"/>
      <point x="132" y="506"/>
      <point x="35" y="394"/>
      <point x="35" y="242" type="curve" smooth="yes"/>
      <point x="35" y="92"/>
      <point x="94" y="-6"/>
      <point x="219" y="-6" type="curve" smooth="yes"/>
      <point x="304" y="-6"/>
      <point x="353" y="35"/>
      <point x="375" y="115" type="curve"/>
      <point x="380" y="34"/>
      <point x="426" y="-8"/>
      <point x="426" y="-8" type="curve"/>
      <point x="515" y="28" type="line"/>
      <point x="515" y="28"/>
      <point x="467" y="83"/>
      <point x="467" y="241" type="curve" smooth="yes"/>
    </contour>
    <contour>
      <point x="238" y="74" type="curve" smooth="yes"/>
      <point x="165" y="74"/>
      <point x="158" y="159"/>
      <point x="158" y="252" type="curve" smooth="yes"/>
      <point x="158" y="353"/>
      <point x="187" y="426"/>
      <point x="287" y="426" type="curve" smooth="yes"/>
      <point x="308" y="426"/>
      <point x="340" y="419"/>
      <point x="353" y="415" type="curve"/>
      <point x="353" y="271" type="line" smooth="yes"/>
      <point x="353" y="173"/>
      <point x="304" y="74"/>
    </contour>
    <contour>
      <point x="130" y="538" type="line"/>
      <point x="129" y="538"/>
      <point x="198" y="576"/>
      <point x="275" y="642" type="curve"/>
      <point x="350" y="577"/>
      <point x="420" y="538"/>
      <point x="419" y="538" type="curve"/>
      <point x="462" y="592" type="line"/>
      <point x="275" y="779" type="line"/>
      <point x="87" y="592" type="line"/>
    </contour>
  </outline>
</glyph>
<glyph name="atilde" format="1">
  <advance width="536"/>
  <unicode hex="00E3"/>
  <outline>
    <contour>
      <point x="467" y="477" type="line"/>
      <point x="458" y="479"/>
      <point x="354" y="506"/>
      <point x="274" y="506" type="curve" smooth="yes"/>
      <point x="132" y="506"/>
      <point x="35" y="394"/>
      <point x="35" y="242" type="curve" smooth="yes"/>
      <point x="35" y="92"/>
      <point x="94" y="-6"/>
      <point x="219" y="-6" type="curve" smooth="yes"/>
      <point x="304" y="-6"/>
      <point x="353" y="35"/>
      <point x="375" y="115" type="curve"/>
      <point x="380" y="34"/>
      <point x="426" y="-8"/>
      <point x="426" y="-8" type="curve"/>
      <point x="515" y="28" type="line"/>
      <point x="515" y="28"/>
      <point x="467" y="83"/>
      <point x="467" y="241" type="curve" smooth="yes"/>
    </contour>
    <contour>
      <point x="238" y="74" type="curve" smooth="yes"/>
      <point x="165" y="74"/>
      <point x="158" y="159"/>
      <point x="158" y="252" type="curve" smooth="yes"/>
      <point x="158" y="353"/>
      <point x="187" y="426"/>
      <point x="287" y="426" type="curve" smooth="yes"/>
      <point x="308" y="426"/>
      <point x="340" y="419"/>
      <point x="353" y="415" type="curve"/>
      <point x="353" y="271" type="line" smooth="yes"/>
      <point x="353" y="173"/>
      <point x="304" y="74"/>
    </contour>
    <contour>
      <point x="106" y="589" type="line"/>
      <point x="106" y="589"/>
      <point x="140" y="603"/>
      <point x="185" y="603" type="curve" smooth="yes"/>
      <point x="234" y="603"/>
      <point x="289" y="583"/>
      <point x="338" y="583" type="curve" smooth="yes"/>
      <point x="383" y="583"/>
      <point x="418" y="606"/>
      <point x="418" y="606" type="curve"/>
      <point x="418" y="680" type="line"/>
      <point x="418" y="680"/>
      <point x="383" y="666"/>
      <point x="338" y="666" type="curve" smooth="yes"/>
      <point x="289" y="666"/>
      <point x="234" y="686"/>
      <point x="185" y="686" type="curve" smooth="yes"/>
      <point x="140" y="686"/>
      <point x="106" y="663"/>
      <point x="106" y="663" type="curve"/>
    </contour>
  </outline>
</glyph>
<glyph name="aring" format="1">
  <advance width="536"/>
  <unicode hex="00E5"/>
  <outline>
    <contour>
      <point x="467" y="477" type="line"/>
      <point x="458" y="479"/>
      <point x="354" y="506"/>
      <point x="274" y="506" type="curve" smooth="yes"/>
      <point x="132" y="506"/>
      <point x="35" y="394"/>
      <point x="35" y="242" type="curve" smooth="yes"/>
      <point x="35" y="92"/>
      <point x="94" y="-6"/>
      <point x="219" y="-6" type="curve" smooth="yes"/>
      <point x="304" y="-6"/>
      <point x="353" y="35"/>
      <point x="375" y="115" type="curve"/>
      <point x="380" y="34"/>
      <point x="426" y="-8"/>
      <point x="426" y="-8" type="curve"/>
      <point x="515" y="28" type="line"/>
      <point x="515" y="28"/>
      <point x="467" y="83"/>
      <point x="467" y="241" type="curve" smooth="yes"/>
    </contour>
    <contour>
      <point x="238" y="74" type="curve" smooth="yes"/>
      <point x="165" y="74"/>
      <point x="158" y="159"/>
      <point x="158" y="252" type="curve" smooth="yes"/>
      <point x="158" y="353"/>
      <point x="187" y="426"/>
      <point x="287" y="426" type="curve" smooth="yes"/>
      <point x="308" y="426"/>
      <point x="340" y="419"/>
      <point x="353" y="415" type="curve"/>
      <point x="353" y="271" type="line" smooth="yes"/>
      <point x="353" y="173"/>
      <point x="304" y="74"/>
    </contour>
    <contour>
      <point x="168" y="646" type="curve" smooth="yes"/>
      <point x="168" y="589"/>
      <point x="209" y="545"/>
      <point x="266" y="545" type="curve" smooth="yes"/>
      <point x="324" y="545"/>
      <point x="367" y="589"/>
      <point x="367" y="646" type="curve" smooth="yes"/>
      <point x="367" y="704"/>
      <point x="326" y="746"/>
      <point x="269" y="746" type="curve" smooth="yes"/>
      <point x="211" y="746"/>
      <point x="168" y="703"/>
    </contour>
    <contour>
      <point x="224" y="647" type="curve" smooth="yes"/>
      <point x="224" y="678"/>
      <point x="240" y="696"/>
      <point x="267" y="696" type="curve" smooth="yes"/>
      <point x="295" y="696"/>
      <point x="311" y="676"/>
      <point x="311" y="646" type="curve" smooth="yes"/>
      <point x="311" y="614"/>
      <point x="295" y="594"/>
      <point x="267" y="594" type="curve" smooth="yes"/>
      <point x="240" y="594"/>
      <point x="224" y="617"/>
    </contour>
  </outline>
</glyph>
<glyph name="ae" format="1">
  <advance width="760"/>
  <unicode hex="00E6"/>
  <outline>
    <contour>
      <point x="274" y="506" type="curve" smooth="yes"/>
      <point x="132" y="506"/>
      <point x="35" y="394"/>
      <point x="35" y="242" type="curve" smooth="yes"/>
      <point x="35" y="92"/>
      <point x="94" y="-6"/>
      <point x="219" y="-6" type="curve" smooth="yes"/>
      <point x="293" y="-6"/>
      <point x="339" y="25"/>
      <point x="364" y="86" type="curve"/>
      <point x="397" y="27"/>
      <point x="456" y="-7"/>
      <point x="548" y="-7" type="curve" smooth="yes"/>
      <point x="649" y="-7"/>
      <point x="736" y="39"/>
      <point x="736" y="39" type="curve"/>
      <point x="706" y="110" type="line"/>
      <point x="706" y="110"/>
      <point x="622" y="75"/>
      <point x="564" y="75" type="curve" smooth="yes"/>
      <point x="485" y="75"/>
      <point x="460" y="126"/>
      <point x="453" y="188" type="curve"/>
      <point x="630" y="190"/>
      <point x="740" y="272"/>
      <point x="740" y="368" type="curve" smooth="yes"/>
      <point x="740" y="448"/>
      <point x="692" y="510"/>
      <point x="573" y="510" type="curve" smooth="yes"/>
      <point x="522" y="510"/>
      <point x="476" y="497"/>
      <point x="438" y="471" type="curve"/>
      <point x="405" y="485"/>
      <point x="345" y="506"/>
    </contour>
    <contour>
      <point x="238" y="74" type="curve" smooth="yes"/>
      <point x="165" y="74"/>
      <point x="158" y="159"/>
      <point x="158" y="252" type="curve" smooth="yes"/>
      <point x="158" y="353"/>
      <point x="187" y="426"/>
      <point x="287" y="426" type="curve" smooth="yes"/>
      <point x="322" y="426"/>
      <point x="350" y="416"/>
      <point x="374" y="403" type="curve"/>
      <point x="348" y="360"/>
      <point x="333" y="304"/>
      <point x="333" y="237" type="curve" smooth="yes"/>
      <point x="333" y="212"/>
      <point x="334" y="189"/>
      <point x="338" y="168" type="curve"/>
      <point x="320" y="112"/>
      <point x="283" y="74"/>
    </contour>
    <contour>
      <point x="565" y="432" type="curve" smooth="yes"/>
      <point x="601" y="432"/>
      <point x="626" y="407"/>
      <point x="626" y="368" type="curve" smooth="yes"/>
      <point x="626" y="321"/>
      <point x="578" y="265"/>
      <point x="450" y="260" type="curve"/>
      <point x="452" y="342"/>
      <point x="476" y="432"/>
    </contour>
  </outline>
</glyph>
<glyph name="egrave" format="1">
  <advance width="473"/>
  <unicode hex="00E8"/>
  <outline>
    <contour>
      <point x="35" y="237" type="curve" smooth="yes"/>
      <point x="35" y="91"/>
      <point x="97" y="-7"/>
      <point x="251" y="-7" type="curve" smooth="yes"/>
      <point x="352" y="-7"/>
      <point x="439" y="39"/>
      <point x="439" y="39" type="curve"/>
      <point x="409" y="110" type="line"/>
      <point x="409" y="110"/>
      <point x="325" y="75"/>
      <point x="267" y="75" type="curve" smooth="yes"/>
      <point x="188" y="75"/>
      <point x="163" y="126"/>
      <point x="156" y="188" type="curve"/>
      <point x="332" y="190"/>
      <point x="443" y="272"/>
      <point x="443" y="368" type="curve" smooth="yes"/>
      <point x="443" y="448"/>
      <point x="395" y="510"/>
      <point x="276" y="510" type="curve" smooth="yes"/>
      <point x="140" y="510"/>
      <point x="35" y="415"/>
    </contour>
    <contour>
      <point x="267" y="432" type="curve" smooth="yes"/>
      <point x="304" y="432"/>
      <point x="329" y="407"/>
      <point x="329" y="368" type="curve" smooth="yes"/>
      <point x="329" y="321"/>
      <point x="280" y="265"/>
      <point x="153" y="260" type="curve"/>
      <point x="155" y="342"/>
      <point x="179" y="432"/>
    </contour>
    <contour>
      <point x="305" y="590" type="line"/>
      <point x="135" y="779" type="line"/>
      <point x="59" y="708" type="line"/>
      <point x="138" y="610"/>
      <point x="257" y="538"/>
      <point x="257" y="538" type="curve"/>
    </contour>
  </outline>
</glyph>
<glyph name="edieresis" format="1">
  <advance width="473"/>
  <unicode hex="00EB"/>
  <outline>
    <contour>
      <point x="35" y="237" type="curve" smooth="yes"/>
      <point x="35" y="91"/>
      <point x="97" y="-7"/>
      <point x="251" y="-7" type="curve" smooth="yes"/>
      <point x="352" y="-7"/>
      <point x="439" y="39"/>
      <point x="439" y="39" type="curve"/>
      <point x="409" y="110" type="line"/>
      <point x="409" y="110"/>
      <point x="325" y="75"/>
      <point x="267" y="75" type="curve" smooth="yes"/>
      <point x="188" y="75"/>
      <point x="163" y="126"/>
      <point x="156" y="188" type="curve"/>
      <point x="332" y="190"/>
      <point x="443" y="272"/>
      <point x="443" y="368" type="curve" smooth="yes"/>
      <point x="443" y="448"/>
      <point x="395" y="510"/>
      <point x="276" y="510" type="curve" smooth="yes"/>
      <point x="140" y="510"/>
      <point x="35" y="415"/>
    </contour>
    <contour>
      <point x="267" y="432" type="curve" smooth="yes"/>
      <point x="304" y="432"/>
      <point x="329" y="407"/>
      <point x="329" y="368" type="curve" smooth="yes"/>
      <point x="329" y="321"/>
      <point x="280" y="265"/>
      <point x="153" y="260" type="curve"/>
      <point x="155" y="342"/>
      <point x="179" y="432"/>
    </contour>
    <contour>
      <point x="218" y="651" type="curve" smooth="yes"/>
      <point x="218" y="687"/>
      <point x="196" y="714"/>
      <point x="157" y="714" type="curve" smooth="yes"/>
      <point x="116" y="714"/>
      <point x="94" y="686"/>
      <point x="94" y="649" type="curve" smooth="yes"/>
      <point x="94" y="615"/>
      <point x="116" y="587"/>
      <point x="154" y="587" type="curve" smooth="yes"/>
      <point x="196" y="587"/>
      <point x="218" y="615"/>
    </contour>
    <contour>
      <point x="418" y="651" type="curve" smooth="yes"/>
      <point x="418" y="687"/>
      <point x="396" y="714"/>
      <point x="357" y="714" type="curve" smooth="yes"/>
      <point x="315" y="714"/>
      <point x="293" y="686"/>
      <point x="293" y="649" type="curve" smooth="yes"/>
      <point x="293" y="615"/>
      <point x="315" y="587"/>
      <point x="354" y="587" type="curve" smooth="yes"/>
      <point x="396" y="587"/>
      <point x="418" y="615"/>
    </contour>
  </outline>
</glyph>
<glyph name="igrave" format="1">
  <advance width="245"/>
  <unicode hex="00EC"/>
  <outline>
    <contour>
      <point x="159" y="-4" type="curve" smooth="yes"/>
      <point x="206" y="-4"/>
      <point x="230" y="10"/>
      <point x="230" y="10" type="curve"/>
      <point x="218" y="82" type="line"/>
      <point x="218" y="82"/>
      <point x="202" y="80"/>
      <point x="192" y="80" type="curve" smooth="yes"/>
      <point x="173" y="80"/>
      <point x="164" y="89"/>
      <point x="164" y="119" type="curve" smooth="yes"/>
      <point x="164" y="498" type="line"/>
      <point x="50" y="498" type="line"/>
      <point x="50" y="109" type="line" smooth="yes"/>
      <point x="50" y="43"/>
      <point x="89" y="-4"/>
    </contour>
    <contour>
      <point x="154" y="590" type="line"/>
      <point x="15" y="780" type="line"/>
      <point x="-65" y="713" type="line"/>
      <point x="14" y="615"/>
      <point x="106" y="539"/>
      <point x="106" y="539" type="curve"/>
    </contour>
  </outline>
</glyph>
<glyph name="iacute" format="1">
  <advance width="245"/>
  <unicode hex="00ED"/>
  <outline>
    <contour>
      <point x="159" y="-4" type="curve" smooth="yes"/>
      <point x="206" y="-4"/>
      <point x="230" y="10"/>
      <point x="230" y="10" type="curve"/>
      <point x="218" y="82" type="line"/>
      <point x="218" y="82"/>
      <point x="202" y="80"/>
      <point x="192" y="80" type="curve" smooth="yes"/>
      <point x="173" y="80"/>
      <point x="164" y="89"/>
      <point x="164" y="119" type="curve" smooth="yes"/>
      <point x="164" y="498" type="line"/>
      <point x="50" y="498" type="line"/>
      <point x="50" y="109" type="line" smooth="yes"/>
      <point x="50" y="43"/>
      <point x="89" y="-4"/>
    </contour>
    <contour>
      <point x="104" y="539" type="line"/>
      <point x="104" y="539"/>
      <point x="196" y="615"/>
      <point x="275" y="713" type="curve"/>
      <point x="196" y="780" type="line"/>
      <point x="56" y="590" type="line"/>
    </contour>
  </outline>
</glyph>
<glyph name="icircumflex" format="1">
  <advance width="245"/>
  <unicode hex="00EE"/>
  <outline>
    <contour>
      <point x="159" y="-4" type="curve" smooth="yes"/>
      <point x="206" y="-4"/>
      <point x="230" y="10"/>
      <point x="230" y="10" type="curve"/>
      <point x="218" y="82" type="line"/>
      <point x="218" y="82"/>
      <point x="202" y="80"/>
      <point x="192" y="80" type="curve" smooth="yes"/>
      <point x="173" y="80"/>
      <point x="164" y="89"/>
      <point x="164" y="119" type="curve" smooth="yes"/>
      <point x="164" y="498" type="line"/>
      <point x="50" y="498" type="line"/>
      <point x="50" y="109" type="line" smooth="yes"/>
      <point x="50" y="43"/>
      <point x="89" y="-4"/>
    </contour>
    <contour>
      <point x="106" y="641" type="curve"/>
      <point x="176" y="577"/>
      <point x="216" y="550"/>
      <point x="230" y="539" type="curve"/>
      <point x="277" y="589" type="line"/>
      <point x="106" y="781" type="line"/>
      <point x="-64" y="589" type="line"/>
      <point x="-18" y="539" type="line"/>
      <point x="-1" y="552"/>
      <point x="35" y="576"/>
    </contour>
  </outline>
</glyph>
<glyph name="ntilde" format="1">
  <advance width="549"/>
  <unicode hex="00F1"/>
  <outline>
    <contour>
      <point x="488" y="0" type="line"/>
      <point x="488" y="334" type="line" smooth="yes"/>
      <point x="488" y="439"/>
      <point x="445" y="506"/>
      <point x="342" y="506" type="curve" smooth="yes"/>
      <point x="270" y="506"/>
      <point x="199" y="473"/>
      <point x="164" y="393" type="curve"/>
      <point x="153" y="464"/>
      <point x="115" y="501"/>
      <point x="115" y="501" type="curve"/>
      <point x="25" y="465" type="line"/>
      <point x="25" y="465"/>
      <point x="74" y="411"/>
      <point x="74" y="252" type="curve" smooth="yes"/>
      <point x="74" y="0" type="line"/>
      <point x="188" y="0" type="line"/>
      <point x="188" y="247" type="line" smooth="yes"/>
      <point x="188" y="352"/>
      <point x="249" y="416"/>
      <point x="309" y="416" type="curve" smooth="yes"/>
      <point x="357" y="416"/>
      <point x="375" y="379"/>
      <point x="375" y="323" type="curve" smooth="yes"/>
      <point x="375" y="0" type="line"/>
    </contour>
    <contour>
      <point x="157" y="589" type="line"/>
      <point x="157" y="589"/>
      <point x="191" y="603"/>
      <point x="236" y="603" type="curve" smooth="yes"/>
      <point x="285" y="603"/>
      <point x="340" y="583"/>
      <point x="389" y="583" type="curve" smooth="yes"/>
      <point x="434" y="583"/>
      <point x="469" y="606"/>
      <point x="469" y="606" type="curve"/>
      <point x="469" y="680" type="line"/>
      <point x="469" y="680"/>
      <point x="434" y="666"/>
      <point x="389" y="666" type="curve" smooth="yes"/>
      <point x="340" y="666"/>
      <point x="285" y="686"/>
      <point x="236" y="686" type="curve" smooth="yes"/>
      <point x="191" y="686"/>
      <point x="157" y="663"/>
      <point x="157" y="663" type="curve"/>
    </contour>
  </outline>
</glyph>
<glyph name="ocircumflex" format="1">
  <advance width="517"/>
  <unicode hex="00F4"/>
  <outline>
    <contour>
      <point x="263" y="510" type="curve" smooth="yes"/>
      <point x="110" y="510"/>
      <point x="35" y="395"/>
      <point x="35" y="244" type="curve" smooth="yes"/>
      <point x="35" y="86"/>
      <point x="101" y="-10"/>
      <point x="254" y="-10" type="curve" smooth="yes"/>
      <point x="407" y="-10"/>
      <point x="482" y="105"/>
      <point x="482" y="255" type="curve" smooth="yes"/>
      <point x="482" y="414"/>
      <point x="416" y="510"/>
    </contour>
    <contour>
      <point x="253" y="426" type="curve" smooth="yes"/>
      <point x="339" y="426"/>
      <point x="359" y="345"/>
      <point x="359" y="245" type="curve" smooth="yes"/>
      <point x="359" y="149"/>
      <point x="341" y="74"/>
      <point x="264" y="74" type="curve" smooth="yes"/>
      <point x="178" y="74"/>
      <point x="158" y="155"/>
      <point x="158" y="254" type="curve" smooth="yes"/>
      <point x="158" y="351"/>
      <point x="176" y="426"/>
    </contour>
    <contour>
      <point x="119" y="538" type="line"/>
      <point x="118" y="538"/>
      <point x="187" y="576"/>
      <point x="264" y="642" type="curve"/>
      <point x="339" y="577"/>
      <point x="409" y="538"/>
      <point x="408" y="538" type="curve"/>
      <point x="451" y="592" type="line"/>
      <point x="264" y="779" type="line"/>
      <point x="76" y="592" type="line"/>
    </contour>
  </outline>
</glyph>
<glyph name="odieresis" format="1">
  <advance width="517"/>
  <unicode hex="00F6"/>
  <outline>
    <contour>
      <point x="263" y="510" type="curve" smooth="yes"/>
      <point x="110" y="510"/>
      <point x="35" y="395"/>
      <point x="35" y="244" type="curve" smooth="yes"/>
      <point x="35" y="86"/>
      <point x="101" y="-10"/>
      <point x="254" y="-10" type="curve" smooth="yes"/>
      <point x="407" y="-10"/>
      <point x="482" y="105"/>
      <point x="482" y="255" type="curve" smooth="yes"/>
      <point x="482" y="414"/>
      <point x="416" y="510"/>
    </contour>
    <contour>
      <point x="253" y="426" type="curve" smooth="yes"/>
      <point x="339" y="426"/>
      <point x="359" y="345"/>
      <point x="359" y="245" type="curve" smooth="yes"/>
      <point x="359" y="149"/>
      <point x="341" y="74"/>
      <point x="264" y="74" type="curve" smooth="yes"/>
      <point x="178" y="74"/>
      <point x="158" y="155"/>
      <point x="158" y="254" type="curve" smooth="yes"/>
      <point x="158" y="351"/>
      <point x="176" y="426"/>
    </contour>
    <contour>
      <point x="218" y="651" type="curve" smooth="yes"/>
      <point x="218" y="687"/>
      <point x="196" y="714"/>
      <point x="157" y="714" type="curve" smooth="yes"/>
      <point x="116" y="714"/>
      <point x="94" y="686"/>
      <point x="94" y="649" type="curve" smooth="yes"/>
      <point x="94" y="615"/>
      <point x="116" y="587"/>
      <point x="154" y="587" type="curve" smooth="yes"/>
      <point x="196" y="587"/>
      <point x="218" y="615"/>
    </contour>
    <contour>
      <point x="418" y="651" type="curve" smooth="yes"/>
      <point x="418" y="687"/>
      <point x="396" y="714"/>
      <point x="357" y="714" type="curve" smooth="yes"/>
      <point x="315" y="714"/>
      <point x="293" y="686"/>
      <point x="293" y="649" type="curve" smooth="yes"/>
      <point x="293" y="615"/>
      <point x="315" y="587"/>
      <point x="354" y="587" type="curve" smooth="yes"/>
      <point x="396" y="587"/>
      <point x="418" y="615"/>
    </contour>
  </outline>
</glyph>
<glyph name="divide" format="1">
  <advance width="511"/>
  <unicode hex="00F7"/>
  <outline>
    <contour>
      <point x="313" y="465" type="curve" smooth="yes"/>
      <point x="313" y="500"/>
      <point x="292" y="525"/>
      <point x="255" y="525" type="curve" smooth="yes"/>
      <point x="215" y="525"/>
      <point x="194" y="498"/>
      <point x="194" y="462" type="curve" smooth="yes"/>
      <point x="194" y="430"/>
      <point x="215" y="403"/>
      <point x="252" y="403" type="curve" smooth="yes"/>
      <point x="292" y="403"/>
      <point x="313" y="430"/>
    </contour>
    <contour>
      <point x="60" y="257" type="line"/>
      <point x="451" y="257" type="line"/>
      <point x="451" y="346" type="line"/>
      <point x="60" y="346" type="line"/>
    </contour>
    <contour>
      <point x="313" y="136" type="curve" smooth="yes"/>
      <point x="313" y="171"/>
      <point x="292" y="196"/>
      <point x="255" y="196" type="curve" smooth="yes"/>
      <point x="215" y="196"/>
      <point x="194" y="169"/>
      <point x="194" y="133" type="curve" smooth="yes"/>
      <point x="194" y="101"/>
      <point x="215" y="74"/>
      <point x="252" y="74" type="curve" smooth="yes"/>
      <point x="292" y="74"/>
      <point x="313" y="101"/>
    </contour>
  </outline>
</glyph>
<glyph name="oslash" format="1">
  <advance width="517"/>
  <unicode hex="00F8"/>
  <outline>
    <contour>
      <point x="263" y="510" type="curve" smooth="yes"/>
      <point x="110" y="510"/>
      <point x="35" y="395"/>
      <point x="35" y="244" type="curve" smooth="yes"/>
      <point x="35" y="151"/>
      <point x="58" y="80"/>
      <point x="107" y="37" type="curve"/>
      <point x="80" y="-19" type="line"/>
      <point x="158" y="-54" type="line"/>
      <point x="183" y="-2" type="line"/>
      <point x="204" y="-7"/>
      <point x="228" y="-10"/>
      <point x="254" y="-10" type="curve" smooth="yes"/>
      <point x="407" y="-10"/>
      <point x="482" y="105"/>
      <point x="482" y="255" type="curve" smooth="yes"/>
      <point x="482" y="348"/>
      <point x="459" y="419"/>
      <point x="409" y="463" type="curve"/>
      <point x="436" y="518" type="line"/>
      <point x="359" y="553" type="line"/>
      <point x="334" y="502" type="line"/>
      <point x="313" y="507"/>
      <point x="289" y="510"/>
    </contour>
    <contour>
      <point x="253" y="426" type="curve" smooth="yes"/>
      <point x="268" y="426"/>
      <point x="282" y="423"/>
      <point x="293" y="418" type="curve"/>
      <point x="167" y="160" type="line"/>
      <point x="160" y="187"/>
      <point x="158" y="219"/>
      <point x="158" y="254" type="curve" smooth="yes"/>
      <point x="158" y="351"/>
      <point x="176" y="426"/>
    </contour>
    <contour>
      <point x="359" y="245" type="curve" smooth="yes"/>
      <point x="359" y="149"/>
      <point x="341" y="74"/>
      <point x="264" y="74" type="curve" smooth="yes"/>
      <point x="248" y="74"/>
      <point x="235" y="76"/>
      <point x="224" y="81" type="curve"/>
      <point x="349" y="340" type="line"/>
      <point x="356" y="312"/>
      <point x="359" y="280"/>
    </contour>
  </outline>
</glyph>
<glyph name="ugrave" format="1">
  <advance width="549"/>
  <unicode hex="00F9"/>
  <outline>
    <contour>
      <point x="361" y="254" type="line" smooth="yes"/>
      <point x="361" y="148"/>
      <point x="299" y="78"/>
      <point x="240" y="78" type="curve" smooth="yes"/>
      <point x="192" y="78"/>
      <point x="174" y="113"/>
      <point x="174" y="168" type="curve" smooth="yes"/>
      <point x="174" y="498" type="line"/>
      <point x="60" y="498" type="line"/>
      <point x="60" y="166" type="line" smooth="yes"/>
      <point x="60" y="60"/>
      <point x="101" y="-6"/>
      <point x="206" y="-6" type="curve" smooth="yes"/>
      <point x="277" y="-6"/>
      <point x="348" y="25"/>
      <point x="384" y="103" type="curve"/>
      <point x="393" y="30"/>
      <point x="434" y="-8"/>
      <point x="434" y="-8" type="curve"/>
      <point x="523" y="28" type="line"/>
      <point x="523" y="28"/>
      <point x="475" y="83"/>
      <point x="475" y="241" type="curve" smooth="yes"/>
      <point x="475" y="498" type="line"/>
      <point x="361" y="498" type="line"/>
    </contour>
    <contour>
      <point x="319" y="590" type="line"/>
      <point x="149" y="779" type="line"/>
      <point x="73" y="708" type="line"/>
      <point x="152" y="610"/>
      <point x="271" y="538"/>
      <point x="271" y="538" type="curve"/>
    </contour>
  </outline>
</glyph>
<glyph name="ucircumflex" format="1">
  <advance width="549"/>
  <unicode hex="00FB"/>
  <outline>
    <contour>
      <point x="361" y="254" type="line" smooth="yes"/>
      <point x="361" y="148"/>
      <point x="299" y="78"/>
      <point x="240" y="78" type="curve" smooth="yes"/>
      <point x="192" y="78"/>
      <point x="174" y="113"/>
      <point x="174" y="168" type="curve" smooth="yes"/>
      <point x="174" y="498" type="line"/>
      <point x="60" y="498" type="line"/>
      <point x="60" y="166" type="line" smooth="yes"/>
      <point x="60" y="60"/>
      <point x="101" y="-6"/>
      <point x="206" y="-6" type="curve" smooth="yes"/>
      <point x="277" y="-6"/>
      <point x="348" y="25"/>
      <point x="384" y="103" type="curve"/>
      <point x="393" y="30"/>
      <point x="434" y="-8"/>
      <point x="434" y="-8" type="curve"/>
      <point x="523" y="28" type="line"/>
      <point x="523" y="28"/>
      <point x="475" y="83"/>
      <point x="475" y="241" type="curve" smooth="yes"/>
      <point x="475" y="498" type="line"/>
      <point x="361" y="498" type="line"/>
    </contour>
    <contour>
      <point x="134" y="538" type="line"/>
      <point x="133" y="538"/>
      <point x="202" y="576"/>
      <point x="279" y="642" type="curve"/>
      <point x="354" y="577"/>
      <point x="424" y="538"/>
      <point x="423" y="538" type="curve"/>
      <point x="466" y="592" type="line"/>
      <point x="279" y="779" type="line"/>
      <point x="91" y="592" type="line"/>
    </contour>
  </outline>
</glyph>
<glyph name="udieresis" format="1">
  <advance width="549"/>
  <unicode hex="00FC"/>
  <outline>
    <contour>
      <point x="361" y="254" type="line" smooth="yes"/>
      <point x="361" y="148"/>
      <point x="299" y="78"/>
      <point x="240" y="78" type="curve" smooth="yes"/>
      <point x="192" y="78"/>
      <point x="174" y="113"/>
      <point x="174" y="168" type="curve" smooth="yes"/>
      <point x="174" y="498" type="line"/>
      <point x="60" y="498" type="line"/>
      <point x="60" y="166" type="line" smooth="yes"/>
      <point x="60" y="60"/>
      <point x="101" y="-6"/>
      <point x="206" y="-6" type="curve" smooth="yes"/>
      <point x="277" y="-6"/>
      <point x="348" y="25"/>
      <point x="384" y="103" type="curve"/>
      <point x="393" y="30"/>
      <point x="434" y="-8"/>
      <point x="434" y="-8" type="curve"/>
      <point x="523" y="28" type="line"/>
      <point x="523" y="28"/>
      <point x="475" y="83"/>
      <point x="475" y="241" type="curve" smooth="yes"/>
      <point x="475" y="498" type="line"/>
      <point x="361" y="498" type="line"/>
    </contour>
    <contour>
      <point x="233" y="651" type="curve" smooth="yes"/>
      <point x="233" y="687"/>
      <point x="211" y="714"/>
      <point x="172" y="714" type="curve" smooth="yes"/>
      <point x="131" y="714"/>
      <point x="109" y="686"/>
      <point x="109" y="649" type="curve" smooth="yes"/>
      <point x="109" y="615"/>
      <point x="131" y="587"/>
      <point x="169" y="587" type="curve" smooth="yes"/>
      <point x="211" y="587"/>
      <point x="233" y="615"/>
    </contour>
    <contour>
      <point x="433" y="651" type="curve" smooth="yes"/>
      <point x="433" y="687"/>
      <point x="411" y="714"/>
      <point x="372" y="714" type="curve" smooth="yes"/>
      <point x="330" y="714"/>
      <point x="308" y="686"/>
      <point x="308" y="649" type="curve" smooth="yes"/>
      <point x="308" y="615"/>
      <point x="330" y="587"/>
      <point x="369" y="587" type="curve" smooth="yes"/>
      <point x="411" y="587"/>
      <point x="433" y="615"/>
    </contour>
  </outline>
</glyph>
<glyph name="thorn" format="1">
  <advance width="532"/>
  <unicode hex="00FE"/>
  <outline>
    <contour>
      <point x="179" y="725" type="line"/>
      <point x="65" y="705" type="line"/>
      <point x="65" y="-221" type="line"/>
      <point x="179" y="-201" type="line"/>
      <point x="179" y="0" type="line"/>
      <point x="205" y="-3"/>
      <point x="232" y="-6"/>
      <point x="258" y="-6" type="curve" smooth="yes"/>
      <point x="400" y="-6"/>
      <point x="497" y="106"/>
      <point x="497" y="258" type="curve" smooth="yes"/>
      <point x="497" y="408"/>
      <point x="438" y="506"/>
      <point x="313" y="506" type="curve" smooth="yes"/>
      <point x="248" y="506"/>
      <point x="205" y="483"/>
      <point x="179" y="437" type="curve"/>
    </contour>
    <contour>
      <point x="294" y="425" type="curve" smooth="yes"/>
      <point x="367" y="425"/>
      <point x="374" y="341"/>
      <point x="374" y="248" type="curve" smooth="yes"/>
      <point x="374" y="147"/>
      <point x="345" y="74"/>
      <point x="245" y="74" type="curve" smooth="yes"/>
      <point x="223" y="74"/>
      <point x="191" y="81"/>
      <point x="179" y="84" type="curve"/>
      <point x="179" y="235" type="line" smooth="yes"/>
      <point x="179" y="332"/>
      <point x="229" y="425"/>
    </contour>
  </outline>
</glyph>
<glyph name="dotlessi" format="1">
  <advance width="245"/>
  <unicode hex="0131"/>
  <outline>
    <contour>
      <point x="107" y="506" type="move" name="topdotlessi"/>
    </contour>
    <contour>
      <point x="159" y="-4" type="curve" smooth="yes"/>
      <point x="206" y="-4"/>
      <point x="230" y="10"/>
      <point x="230" y="10" type="curve"/>
      <point x="218" y="82" type="line"/>
      <point x="218" y="82"/>
      <point x="202" y="80"/>
      <point x="192" y="80" type="curve" smooth="yes"/>
      <point x="173" y="80"/>
      <point x="164" y="89"/>
      <point x="164" y="119" type="curve" smooth="yes"/>
      <point x="164" y="498" type="line"/>
      <point x="50" y="498" type="line"/>
      <point x="50" y="109" type="line" smooth="yes"/>
      <point x="50" y="43"/>
      <point x="89" y="-4"/>
    </contour>
  </outline>
</glyph>
<glyph name="oe" format="1">
  <advance width="800"/>
  <unicode hex="0153"/>
  <outline>
    <contour>
      <point x="263" y="510" type="curve" smooth="yes"/>
      <point x="110" y="510"/>
      <point x="35" y="395"/>
      <point x="35" y="244" type="curve" smooth="yes"/>
      <point x="35" y="86"/>
      <point x="101" y="-10"/>
      <point x="254" y="-10" type="curve" smooth="yes"/>
      <point x="324" y="-10"/>
      <point x="377" y="19"/>
      <point x="414" y="64" type="curve"/>
      <point x="449" y="20"/>
      <point x="501" y="-7"/>
      <point x="578" y="-7" type="curve" smooth="yes"/>
      <point x="678" y="-7"/>
      <point x="765" y="39"/>
      <point x="765" y="39" type="curve"/>
      <point x="735" y="110" type="line"/>
      <point x="735" y="110"/>
      <point x="651" y="75"/>
      <point x="593" y="75" type="curve" smooth="yes"/>
      <point x="514" y="75"/>
      <point x="489" y="126"/>
      <point x="482" y="188" type="curve"/>
      <point x="659" y="190"/>
      <point x="769" y="272"/>
      <point x="769" y="368" type="curve" smooth="yes"/>
      <point x="769" y="448"/>
      <point x="721" y="510"/>
      <point x="603" y="510" type="curve" smooth="yes"/>
      <point x="532" y="510"/>
      <point x="471" y="482"/>
      <point x="428" y="432" type="curve"/>
      <point x="393" y="479"/>
      <point x="339" y="510"/>
    </contour>
    <contour>
      <point x="253" y="426" type="curve" smooth="yes"/>
      <point x="339" y="426"/>
      <point x="359" y="345"/>
      <point x="359" y="245" type="curve" smooth="yes"/>
      <point x="359" y="149"/>
      <point x="341" y="74"/>
      <point x="264" y="74" type="curve" smooth="yes"/>
      <point x="178" y="74"/>
      <point x="158" y="155"/>
      <point x="158" y="254" type="curve" smooth="yes"/>
      <point x="158" y="351"/>
      <point x="176" y="426"/>
    </contour>
    <contour>
      <point x="594" y="432" type="curve" smooth="yes"/>
      <point x="630" y="432"/>
      <point x="656" y="407"/>
      <point x="656" y="368" type="curve" smooth="yes"/>
      <point x="656" y="321"/>
      <point x="607" y="265"/>
      <point x="480" y="260" type="curve"/>
      <point x="482" y="342"/>
      <point x="506" y="432"/>
    </contour>
  </outline>
</glyph>
<glyph name="circumflex" format="1">
  <advance width="500"/>
  <unicode hex="02C6"/>
  <outline>
    <contour>
      <point x="250" y="506" type="move" name="_top"/>
    </contour>
    <contour>
      <point x="113" y="538" type="line"/>
      <point x="112" y="538"/>
      <point x="181" y="576"/>
      <point x="258" y="642" type="curve"/>
      <point x="333" y="577"/>
      <point x="403" y="538"/>
      <point x="402" y="538" type="curve"/>
      <point x="445" y="592" type="line"/>
      <point x="258" y="779" type="line"/>
      <point x="70" y="592" type="line"/>
    </contour>
  </outline>
</glyph>
<glyph name="tilde" format="1">
  <advance width="500"/>
  <unicode hex="02DC"/>
  <outline>
    <contour>
      <point x="255" y="506" type="move" name="_top"/>
    </contour>
    <contour>
      <point x="257" y="506" type="move" name="_topUC"/>
    </contour>
    <contour>
      <point x="94" y="589" type="line"/>
      <point x="94" y="589"/>
      <point x="128" y="603"/>
      <point x="173" y="603" type="curve" smooth="yes"/>
      <point x="222" y="603"/>
      <point x="277" y="583"/>
      <point x="326" y="583" type="curve" smooth="yes"/>
      <point x="371" y="583"/>
      <point x="406" y="606"/>
      <point x="406" y="606" type="curve"/>
      <point x="406" y="680" type="line"/>
      <point x="406" y="680"/>
      <point x="371" y="666"/>
      <point x="326" y="666" type="curve" smooth="yes"/>
      <point x="277" y="666"/>
      <point x="222" y="686"/>
      <point x="173" y="686" type="curve" smooth="yes"/>
      <point x="128" y="686"/>
      <point x="94" y="663"/>
      <point x="94" y="663" type="curve"/>
    </contour>
  </outline>
</glyph>
<glyph name="quoteright" format="1">
  <advance width="230"/>
  <unicode hex="2019"/>
  <outline>
    <contour>
      <point x="77" y="706" type="curve"/>
      <point x="78" y="681"/>
      <point x="96" y="647"/>
      <point x="96" y="608" type="curve" smooth="yes"/>
      <point x="96" y="572"/>
      <point x="82" y="532"/>
      <point x="30" y="494" type="curve"/>
      <point x="73" y="436" type="line"/>
      <point x="144" y="472"/>
      <point x="210" y="542"/>
      <point x="210" y="650" type="curve" smooth="yes"/>
      <point x="210" y="693"/>
      <point x="189" y="724"/>
      <point x="143" y="724" type="curve" smooth="yes"/>
      <point x="96" y="724"/>
      <point x="78" y="707"/>
    </contour>
  </outline>
</glyph>
<glyph name="quotedblleft" format="1">
  <advance width="430"/>
  <unicode hex="201C"/>
  <outline>
    <contour>
      <point x="152" y="452" type="curve"/>
      <point x="151" y="477"/>
      <point x="133" y="511"/>
      <point x="133" y="550" type="curve" smooth="yes"/>
      <point x="133" y="586"/>
      <point x="147" y="626"/>
      <point x="200" y="664" type="curve"/>
      <point x="157" y="722" type="line"/>
      <point x="86" y="686"/>
      <point x="20" y="616"/>
      <point x="20" y="508" type="curve" smooth="yes"/>
      <point x="20" y="465"/>
      <point x="41" y="434"/>
      <point x="87" y="434" type="curve" smooth="yes"/>
      <point x="134" y="434"/>
      <point x="151" y="451"/>
    </contour>
    <contour>
      <point x="352" y="452" type="curve"/>
      <point x="351" y="477"/>
      <point x="333" y="511"/>
      <point x="333" y="550" type="curve" smooth="yes"/>
      <point x="333" y="586"/>
      <point x="347" y="626"/>
      <point x="399" y="664" type="curve"/>
      <point x="357" y="722" type="line"/>
      <point x="286" y="686"/>
      <point x="219" y="616"/>
      <point x="219" y="508" type="curve" smooth="yes"/>
      <point x="219" y="465"/>
      <point x="240" y="434"/>
      <point x="287" y="434" type="curve" smooth="yes"/>
      <point x="333" y="434"/>
      <point x="351" y="451"/>
    </contour>
  </outline>
</glyph>
<glyph name="bullet" format="1">
  <advance width="314"/>
  <unicode hex="2022"/>
  <outline>
    <contour>
      <point x="50" y="316" type="curve" smooth="yes"/>
      <point x="50" y="251"/>
      <point x="92" y="209"/>
      <point x="157" y="209" type="curve" smooth="yes"/>
      <point x="222" y="209"/>
      <point x="264" y="251"/>
      <point x="264" y="316" type="curve" smooth="yes"/>
      <point x="264" y="381"/>
      <point x="222" y="423"/>
      <point x="157" y="423" type="curve" smooth="yes"/>
      <point x="92" y="423"/>
      <point x="50" y="381"/>
    </contour>
  </outline>
</glyph>
<glyph name="guilsinglleft" format="1">
  <advance width="347"/>
  <unicode hex="2039"/>
  <outline>
    <contour>
      <point x="265" y="462" type="line"/>
      <point x="265" y="462"/>
      <point x="127" y="343"/>
      <point x="50" y="245" type="curve"/>
      <point x="127" y="147"/>
      <point x="265" y="28"/>
      <point x="265" y="28" type="curve"/>
      <point x="312" y="82" type="line"/>
      <point x="182" y="245" type="line"/>
      <point x="312" y="408" type="line"/>
    </contour>
  </outline>
</glyph>
<glyph name="guilsinglright" format="1">
  <advance width="347"/>
  <unicode hex="203A"/>
  <outline>
    <contour>
      <point x="35" y="408" type="line"/>
      <point x="165" y="245" type="line"/>
      <point x="35" y="82" type="line"/>
      <point x="83" y="28" type="line"/>
      <point x="83" y="28"/>
      <point x="220" y="147"/>
      <point x="297" y="245" type="curve"/>
      <point x="220" y="343"/>
      <point x="83" y="462"/>
      <point x="83" y="462" type="curve"/>
    </contour>
  </outline>
</glyph>
<glyph name="fraction" format="1">
  <advance width="328"/>
  <unicode hex="2044"/>
  <outline>
    <contour>
      <point x="-20" y="0" type="line"/>
      <point x="74" y="0" type="line"/>
      <point x="348" y="587" type="line"/>
      <point x="254" y="587" type="line"/>
    </contour>
  </outline>
</glyph>
<glyph name="Euro" format="1">
  <advance width="554"/>
  <unicode hex="20AC"/>
  <outline>
    <contour>
      <point x="35" y="424" type="line"/>
      <point x="35" y="335" type="line"/>
      <point x="83" y="335" type="line"/>
      <point x="82" y="326"/>
      <point x="82" y="318"/>
      <point x="82" y="309" type="curve" smooth="yes"/>
      <point x="82" y="297"/>
      <point x="82" y="285"/>
      <point x="83" y="274" type="curve"/>
      <point x="35" y="274" type="line"/>
      <point x="35" y="186" type="line"/>
      <point x="95" y="186" type="line"/>
      <point x="128" y="60"/>
      <point x="214" y="-6"/>
      <point x="324" y="-6" type="curve" smooth="yes"/>
      <point x="420" y="-6"/>
      <point x="492" y="27"/>
      <point x="490" y="26" type="curve"/>
      <point x="465" y="108" type="line"/>
      <point x="456" y="106"/>
      <point x="403" y="83"/>
      <point x="345" y="83" type="curve" smooth="yes"/>
      <point x="287" y="83"/>
      <point x="247" y="123"/>
      <point x="224" y="186" type="curve"/>
      <point x="398" y="186" type="line"/>
      <point x="413" y="274" type="line"/>
      <point x="207" y="274" type="line"/>
      <point x="205" y="288"/>
      <point x="204" y="300"/>
      <point x="204" y="309" type="curve" smooth="yes"/>
      <point x="204" y="322"/>
      <point x="205" y="329"/>
      <point x="205" y="335" type="curve"/>
      <point x="418" y="335" type="line"/>
      <point x="433" y="424" type="line"/>
      <point x="217" y="424" type="line"/>
      <point x="236" y="501"/>
      <point x="278" y="554"/>
      <point x="336" y="554" type="curve" smooth="yes"/>
      <point x="380" y="554"/>
      <point x="412" y="536"/>
      <point x="441" y="504" type="curve"/>
      <point x="498" y="575" type="line"/>
      <point x="469" y="610"/>
      <point x="423" y="643"/>
      <point x="348" y="643" type="curve" smooth="yes"/>
      <point x="221" y="643"/>
      <point x="128" y="557"/>
      <point x="95" y="424" type="curve"/>
    </contour>
  </outline>
</glyph>
<glyph name="minus" format="1">
  <advance width="458"/>
  <unicode hex="2212"/>
  <outline>
    <contour>
      <point x="61" y="257" type="line"/>
      <point x="398" y="257" type="line"/>
      <point x="398" y="346" type="line"/>
      <point x="61" y="346" type="line"/>
    </contour>
  </outline>
</glyph>
<glyph name="uni2215" format="1">
  <advance width="417"/>
  <unicode hex="2215"/>
  <outline>
    <contour>
      <point x="-10" y="-126" type="line"/>
      <point x="109" y="-126" type="line"/>
      <point x="427" y="729" type="line"/>
      <point x="308" y="729" type="line"/>
    </contour>
  </outline>
</glyph>
